<?xml version="1.0" encoding="utf-8"?>
<!-- Generator: Adobe Illustrator 25.0.0, SVG Export Plug-In . SVG Version: 6.00 Build 0)  -->
<svg version="1.1" id="katman_1" xmlns="http://www.w3.org/2000/svg" xmlns:xlink="http://www.w3.org/1999/xlink" x="0px" y="0px"
	 viewBox="0 0 4034 2808.9" style="enable-background:new 0 0 4034 2808.9;" xml:space="preserve">
<path d="M2460.5,1537.9c-97.2,0-184.4,43.1-244.1,110.9l-153-108.3c16.2-44.7,25.6-92.7,25.6-143c0-49.4-9-96.6-24.7-140.6
	l152.6-107.1c59.7,67.5,146.6,110.3,243.6,110.3c179.5,0,325.5-146,325.5-325.5s-146-325.5-325.5-325.5s-325.5,146-325.5,325.5
	c0,32.1,4.9,63.1,13.6,92.5l-152.7,107.2c-63.8-79.2-155.7-134.4-260.3-151.3V798.9c147.5-31,258.6-162,258.6-318.5
	c0-179.5-146-325.5-325.5-325.5s-325.5,146-325.5,325.5c0,154.4,108.2,283.8,252.7,317v186.5c-197.2,34.6-347.7,206.7-347.7,413.7
	c0,208,151.9,380.7,350.6,414.2v196.9c-146,32.1-255.6,162.3-255.6,317.8c0,179.5,146,325.5,325.5,325.5s325.5-146,325.5-325.5
	c0-155.5-109.7-285.7-255.6-317.8v-196.9c100.5-16.9,191.5-69.8,255.9-148.8l154,109c-8.5,29.1-13.3,59.8-13.3,91.6
	c0,179.5,146,325.5,325.5,325.5s325.5-146,325.5-325.5S2640,1537.9,2460.5,1537.9L2460.5,1537.9z M2460.5,776.8
	c87,0,157.8,70.8,157.8,157.8s-70.8,157.8-157.8,157.8s-157.8-70.8-157.8-157.8S2373.4,776.8,2460.5,776.8L2460.5,776.8z
	 M1510.6,480.3c0-87,70.8-157.8,157.8-157.8c87,0,157.8,70.8,157.8,157.8s-70.8,157.8-157.8,157.8
	C1581.4,638.2,1510.6,567.4,1510.6,480.3L1510.6,480.3z M1826.3,2326.4c0,87-70.8,157.8-157.8,157.8c-87,0-157.8-70.8-157.8-157.8
	c0-87,70.8-157.8,157.8-157.8C1755.5,2168.6,1826.3,2239.4,1826.3,2326.4z M1668.5,1617.7c-121.4,0-220.1-98.7-220.1-220.1
	c0-121.4,98.8-220.1,220.1-220.1c121.4,0,220.1,98.8,220.1,220.1C1888.6,1518.9,1789.8,1617.7,1668.5,1617.7z M2460.5,2021.3
	c-87,0-157.8-70.8-157.8-157.8c0-87,70.8-157.8,157.8-157.8s157.8,70.8,157.8,157.8C2618.3,1950.5,2547.5,2021.3,2460.5,2021.3z"/>
</svg>
