<svg id="svg" version="1.1" xmlns="http://www.w3.org/2000/svg" xmlns:xlink="http://www.w3.org/1999/xlink" width="550" viewBox="0, -10, 395, 700"><g id="svg"><path style="fill: white; stroke: #333333; stroke-width: 10px;" id="path0" d="M100.833 0.394 C 99.917 0.547,98.342 0.743,97.333 0.829 C 96.325 0.915,95.050 1.116,94.500 1.275 C 93.950 1.434,93.313 1.500,93.083 1.421 C 92.854 1.342,92.667 1.449,92.667 1.659 C 92.667 1.868,92.538 1.960,92.380 1.862 C 92.020 1.640,86.632 2.996,83.417 4.117 C 82.087 4.581,81.000 4.891,81.000 4.807 C 81.000 4.722,80.400 4.959,79.667 5.333 C 78.933 5.707,78.333 5.940,78.333 5.849 C 78.333 5.759,77.295 6.206,76.027 6.843 C 74.759 7.479,73.559 8.000,73.360 8.000 C 73.162 8.000,73.000 8.145,73.000 8.323 C 73.000 8.500,72.775 8.559,72.500 8.454 C 72.225 8.348,72.000 8.428,72.000 8.631 C 72.000 8.834,71.779 9.000,71.509 9.000 C 71.239 9.000,70.376 9.382,69.592 9.848 C 68.808 10.314,67.904 10.782,67.583 10.887 C 67.262 10.992,67.000 11.210,67.000 11.372 C 67.000 11.534,66.840 11.667,66.643 11.667 C 66.447 11.667,65.660 12.098,64.893 12.625 C 64.127 13.153,63.416 13.565,63.314 13.542 C 63.211 13.519,62.668 13.875,62.106 14.333 C 61.544 14.792,60.657 15.467,60.136 15.833 C 59.615 16.200,58.659 16.966,58.011 17.535 C 57.363 18.104,56.654 18.629,56.435 18.702 C 55.561 18.990,47.333 26.838,47.333 27.382 C 47.333 27.560,47.211 27.630,47.061 27.538 C 46.911 27.445,46.524 27.818,46.200 28.366 C 45.877 28.914,45.062 29.948,44.389 30.664 C 42.813 32.342,42.333 32.926,42.333 33.167 C 42.333 33.275,41.955 33.768,41.493 34.265 C 41.031 34.761,40.474 35.568,40.256 36.059 C 40.037 36.550,39.740 36.879,39.596 36.790 C 39.452 36.700,39.333 36.850,39.333 37.123 C 39.333 37.396,39.146 37.821,38.917 38.069 C 38.153 38.892,37.090 40.513,36.438 41.847 C 35.614 43.533,34.981 44.626,34.255 45.620 C 33.936 46.055,33.758 46.544,33.858 46.706 C 33.958 46.868,33.895 47.000,33.719 47.000 C 33.404 47.000,32.526 48.929,32.619 49.417 C 32.645 49.554,32.517 49.667,32.333 49.667 C 32.150 49.667,31.999 49.854,31.998 50.083 C 31.997 50.313,31.769 50.935,31.492 51.466 C 31.215 51.998,31.055 52.499,31.137 52.581 C 31.218 52.663,31.008 53.185,30.670 53.742 C 30.331 54.298,30.133 54.959,30.229 55.210 C 30.326 55.461,30.249 55.667,30.059 55.667 C 29.779 55.667,28.766 58.439,28.536 59.833 C 28.506 60.017,28.388 60.317,28.274 60.500 C 28.159 60.683,27.981 61.358,27.877 62.000 C 27.774 62.642,27.442 63.990,27.141 64.996 C 26.840 66.002,26.535 67.164,26.464 67.579 C 26.392 67.994,26.264 68.732,26.179 69.219 C 26.094 69.706,25.925 70.794,25.803 71.636 C 25.681 72.478,25.521 73.467,25.447 73.833 C 24.893 76.595,24.717 86.926,25.146 91.500 C 25.266 92.783,25.371 94.283,25.380 94.833 C 25.388 95.383,25.474 96.058,25.570 96.333 C 25.667 96.608,25.789 97.208,25.841 97.667 C 25.943 98.568,26.211 100.009,26.523 101.333 C 26.699 102.082,26.842 102.799,27.120 104.333 C 27.260 105.106,27.701 106.778,27.912 107.333 C 28.147 107.955,28.225 108.209,28.635 109.667 C 29.295 112.021,30.702 115.755,31.623 117.603 C 32.143 118.646,32.836 120.212,33.163 121.083 C 33.490 121.954,33.887 122.667,34.045 122.667 C 34.204 122.667,34.309 122.779,34.280 122.917 C 34.209 123.245,34.847 124.585,35.668 125.833 C 36.030 126.383,36.510 127.208,36.735 127.667 C 36.959 128.125,37.823 129.522,38.655 130.772 C 39.486 132.021,40.362 133.407,40.600 133.852 C 40.839 134.297,41.330 134.820,41.693 135.014 C 42.055 135.208,42.264 135.509,42.156 135.683 C 42.049 135.858,42.115 136.000,42.303 136.000 C 42.491 136.000,42.843 136.377,43.084 136.838 C 43.938 138.467,54.760 149.667,55.481 149.667 C 55.567 149.667,56.282 150.265,57.069 150.996 C 57.856 151.727,58.675 152.327,58.889 152.329 C 59.103 152.331,59.328 152.446,59.389 152.583 C 59.527 152.894,63.257 155.422,63.398 155.300 C 63.454 155.251,63.910 155.591,64.411 156.055 C 64.912 156.520,66.112 157.315,67.078 157.824 C 71.873 160.347,75.608 162.167,76.667 162.496 C 76.758 162.524,77.208 162.712,77.667 162.913 C 78.979 163.490,79.806 163.792,80.167 163.830 C 80.350 163.849,80.837 164.050,81.250 164.277 C 81.662 164.504,82.000 164.605,82.000 164.500 C 82.000 164.395,82.334 164.489,82.742 164.707 C 83.150 164.926,83.938 165.220,84.492 165.362 C 85.046 165.504,86.325 165.864,87.333 166.161 C 88.342 166.458,89.392 166.745,89.667 166.799 C 90.105 166.885,90.177 169.924,90.252 191.339 C 90.299 204.783,90.252 215.697,90.148 215.592 C 90.043 215.488,89.090 215.605,88.030 215.852 C 86.970 216.099,85.707 216.374,85.223 216.461 C 84.740 216.549,84.229 216.691,84.089 216.777 C 83.948 216.864,83.308 217.020,82.667 217.126 C 81.140 217.376,76.109 218.804,74.833 219.348 C 74.283 219.582,73.723 219.751,73.589 219.722 C 73.454 219.694,72.533 220.029,71.542 220.467 C 70.551 220.906,69.273 221.367,68.703 221.492 C 68.133 221.617,67.667 221.858,67.667 222.026 C 67.667 222.195,67.397 222.333,67.067 222.333 C 66.737 222.333,66.287 222.513,66.067 222.733 C 65.847 222.953,65.664 222.991,65.662 222.817 C 65.659 222.642,65.535 222.691,65.387 222.924 C 65.239 223.158,64.789 223.412,64.386 223.490 C 63.746 223.613,62.857 224.023,60.167 225.433 C 59.800 225.626,58.900 226.094,58.167 226.475 C 57.433 226.855,56.742 227.292,56.629 227.445 C 56.517 227.598,56.292 227.731,56.129 227.740 C 55.583 227.771,54.333 228.438,54.333 228.699 C 54.333 228.841,53.808 229.147,53.167 229.379 C 52.525 229.611,52.000 229.920,52.000 230.067 C 52.000 230.213,51.797 230.333,51.549 230.333 C 51.300 230.333,50.693 230.708,50.198 231.167 C 49.704 231.625,49.087 232.000,48.828 232.000 C 48.569 232.000,48.196 232.300,48.000 232.667 C 47.804 233.033,47.423 233.333,47.155 233.333 C 46.886 233.333,46.667 233.473,46.667 233.644 C 46.667 233.815,46.362 234.052,45.989 234.170 C 45.616 234.289,45.016 234.702,44.655 235.089 C 44.295 235.476,44.000 235.676,44.000 235.535 C 44.000 235.269,42.278 236.579,40.464 238.226 C 39.894 238.743,38.711 239.767,37.836 240.500 C 34.238 243.514,25.251 252.806,25.598 253.153 C 25.688 253.244,25.516 253.412,25.214 253.528 C 24.913 253.643,24.667 253.972,24.667 254.258 C 24.667 254.544,24.567 254.678,24.446 254.557 C 24.324 254.435,23.929 254.823,23.567 255.418 C 23.205 256.013,22.627 256.698,22.282 256.939 C 21.938 257.181,21.743 257.520,21.849 257.692 C 21.955 257.864,21.808 258.095,21.521 258.205 C 21.235 258.315,21.000 258.614,21.000 258.869 C 21.000 259.124,20.853 259.333,20.673 259.333 C 20.494 259.333,20.049 259.918,19.684 260.632 C 19.320 261.346,18.829 262.134,18.594 262.382 C 17.933 263.078,16.333 265.614,16.333 265.965 C 16.333 266.137,16.175 266.331,15.982 266.395 C 15.789 266.459,15.590 266.784,15.542 267.116 C 15.493 267.448,15.294 267.820,15.098 267.943 C 14.903 268.066,14.261 269.067,13.670 270.167 C 13.079 271.267,12.463 272.330,12.301 272.531 C 12.138 272.731,12.100 272.989,12.216 273.105 C 12.332 273.221,12.028 273.837,11.541 274.476 C 11.054 275.114,10.565 276.093,10.453 276.651 C 10.341 277.210,10.119 277.667,9.958 277.667 C 9.798 277.667,9.693 277.779,9.726 277.917 C 9.758 278.054,9.383 279.048,8.892 280.125 C 8.402 281.202,8.000 282.254,8.000 282.463 C 8.000 282.672,7.699 283.405,7.331 284.092 C 6.963 284.779,6.621 285.602,6.571 285.920 C 6.521 286.239,6.396 286.650,6.293 286.833 C 5.780 287.745,3.414 295.951,3.208 297.537 C 3.133 298.108,2.901 298.895,2.691 299.287 C 2.481 299.679,2.386 300.000,2.480 300.000 C 2.574 300.000,2.509 300.371,2.337 300.825 C 2.164 301.279,1.872 302.816,1.687 304.242 C 1.502 305.667,1.267 307.208,1.165 307.667 C 1.064 308.125,0.906 309.475,0.816 310.667 C 0.725 311.858,0.560 313.883,0.450 315.167 C 0.018 320.178,0.205 329.141,0.868 335.167 C 0.949 335.900,1.023 336.725,1.033 337.000 C 1.043 337.275,1.205 338.314,1.394 339.308 C 1.583 340.303,1.777 341.428,1.825 341.808 C 2.130 344.235,2.450 345.699,2.711 345.860 C 2.876 345.963,2.935 346.169,2.843 346.318 C 2.750 346.468,2.989 347.770,3.373 349.212 C 3.757 350.654,4.266 352.583,4.505 353.500 C 4.744 354.417,5.264 356.067,5.660 357.167 C 6.056 358.267,6.463 359.504,6.563 359.917 C 6.663 360.329,6.877 360.667,7.039 360.667 C 7.201 360.667,7.306 360.779,7.273 360.917 C 7.162 361.373,8.128 364.163,8.484 364.412 C 8.676 364.546,8.716 364.659,8.572 364.662 C 8.428 364.664,8.497 365.004,8.726 365.417 C 8.954 365.829,9.110 366.279,9.071 366.417 C 9.032 366.554,9.150 366.667,9.333 366.667 C 9.517 366.667,9.635 366.779,9.596 366.917 C 9.557 367.054,9.702 367.484,9.917 367.873 C 10.133 368.261,10.215 368.674,10.099 368.790 C 9.984 368.905,10.064 369.000,10.278 369.000 C 10.492 369.000,10.667 369.194,10.667 369.431 C 10.667 369.885,11.438 371.395,14.138 376.232 C 15.039 377.846,15.939 379.277,16.138 379.412 C 16.337 379.546,16.361 379.659,16.192 379.662 C 16.022 379.664,16.211 380.015,16.612 380.441 C 17.012 380.867,17.238 381.317,17.114 381.441 C 16.990 381.565,17.057 381.667,17.262 381.667 C 17.467 381.667,17.885 382.192,18.189 382.833 C 18.493 383.475,18.876 384.000,19.038 384.000 C 19.200 384.000,19.333 384.209,19.333 384.464 C 19.333 384.720,19.568 385.019,19.854 385.129 C 20.141 385.239,20.301 385.450,20.209 385.598 C 20.001 385.935,22.875 389.779,24.844 391.797 C 25.401 392.367,25.881 392.951,25.913 393.095 C 26.033 393.644,27.255 394.968,27.456 394.766 C 27.572 394.650,27.667 394.749,27.667 394.985 C 27.667 395.222,29.617 397.340,32.000 399.692 C 34.383 402.044,36.333 403.892,36.333 403.799 C 36.333 403.706,36.821 404.142,37.417 404.769 C 38.012 405.396,39.550 406.760,40.833 407.799 C 42.117 408.839,43.404 409.910,43.695 410.178 C 43.985 410.447,44.362 410.667,44.531 410.667 C 44.701 410.667,45.245 411.042,45.739 411.500 C 46.233 411.958,46.736 412.333,46.856 412.333 C 46.975 412.333,48.116 413.091,49.390 414.018 C 50.664 414.945,51.960 415.792,52.270 415.901 C 52.580 416.010,53.302 416.445,53.876 416.868 C 54.449 417.292,55.011 417.544,55.126 417.430 C 55.240 417.316,55.333 417.380,55.333 417.572 C 55.333 417.765,55.596 418.011,55.917 418.120 C 56.237 418.229,57.450 418.847,58.612 419.493 C 59.773 420.138,60.875 420.667,61.060 420.667 C 61.245 420.667,61.830 420.975,62.358 421.351 C 62.887 421.728,63.585 422.090,63.910 422.156 C 64.234 422.223,65.400 422.679,66.500 423.171 C 70.678 425.038,71.959 425.520,72.417 425.399 C 72.554 425.363,72.667 425.483,72.667 425.667 C 72.667 425.850,72.929 426.000,73.250 426.000 C 73.571 426.000,74.645 426.309,75.637 426.686 C 76.629 427.063,78.729 427.668,80.303 428.031 C 81.878 428.394,83.467 428.829,83.833 428.996 C 84.200 429.164,85.025 429.384,85.667 429.486 C 86.308 429.588,87.846 429.845,89.083 430.057 L 91.333 430.444 91.333 456.016 L 91.333 481.588 89.750 481.992 C 88.879 482.214,87.796 482.466,87.344 482.551 C 86.891 482.636,86.366 482.815,86.177 482.949 C 85.988 483.083,85.383 483.239,84.833 483.297 C 84.283 483.354,83.738 483.555,83.621 483.744 C 83.504 483.932,83.241 483.982,83.037 483.856 C 82.833 483.730,82.667 483.802,82.667 484.016 C 82.667 484.230,82.456 484.324,82.199 484.225 C 81.942 484.127,81.630 484.148,81.505 484.273 C 81.380 484.398,81.178 484.512,81.056 484.527 C 80.933 484.542,80.083 484.892,79.167 485.305 C 78.250 485.718,76.825 486.284,76.000 486.563 C 75.175 486.842,74.275 487.241,74.000 487.451 C 73.015 488.204,71.923 488.728,72.168 488.331 C 72.299 488.119,71.793 488.333,71.043 488.806 C 70.293 489.279,69.588 489.667,69.475 489.667 C 69.362 489.667,68.854 489.962,68.347 490.323 C 67.840 490.685,67.329 490.885,67.212 490.768 C 67.096 490.651,67.000 490.734,67.000 490.953 C 67.000 491.171,66.662 491.498,66.250 491.680 C 65.837 491.861,65.050 492.305,64.500 492.667 C 63.950 493.028,63.200 493.461,62.833 493.630 C 62.467 493.798,61.829 494.256,61.417 494.648 C 61.004 495.039,60.664 495.241,60.662 495.096 C 60.659 494.952,60.546 494.984,60.412 495.168 C 60.277 495.351,59.267 496.175,58.167 496.997 C 57.067 497.820,55.567 499.047,54.833 499.725 C 54.100 500.403,53.125 501.265,52.667 501.640 C 51.473 502.616,51.466 502.623,48.167 506.076 C 46.517 507.804,44.792 509.709,44.333 510.310 C 43.875 510.911,43.347 511.575,43.160 511.785 C 41.813 513.296,40.300 515.333,40.524 515.333 C 40.672 515.333,40.565 515.521,40.285 515.750 C 39.482 516.408,34.914 523.616,34.845 524.333 C 34.837 524.425,34.493 525.043,34.081 525.706 C 33.670 526.369,33.333 527.157,33.333 527.456 C 33.333 527.755,33.183 528.000,33.000 528.000 C 32.817 528.000,32.690 528.112,32.720 528.250 C 32.791 528.585,32.447 529.436,31.249 531.892 C 30.697 533.024,30.217 534.224,30.183 534.558 C 30.149 534.893,29.915 535.617,29.662 536.167 C 29.410 536.717,29.188 537.317,29.169 537.500 C 29.151 537.683,28.953 538.165,28.730 538.570 C 28.507 538.975,28.350 539.425,28.382 539.570 C 28.413 539.715,28.357 540.058,28.258 540.333 C 27.961 541.150,27.264 543.782,27.155 544.500 C 27.098 544.867,26.964 545.542,26.856 546.000 C 26.748 546.458,26.580 547.271,26.482 547.805 C 26.384 548.340,26.235 548.889,26.150 549.027 C 26.065 549.164,25.915 550.301,25.815 551.555 C 25.716 552.808,25.565 554.038,25.480 554.287 C 24.602 556.866,24.747 571.729,25.692 575.945 C 26.033 577.466,26.414 580.035,26.454 581.083 C 26.466 581.404,26.610 581.667,26.774 581.667 C 26.937 581.667,26.996 581.863,26.904 582.103 C 26.756 582.490,27.504 585.555,28.831 590.000 C 29.271 591.471,30.518 594.856,31.349 596.833 C 31.580 597.383,31.813 598.056,31.866 598.327 C 31.920 598.599,32.123 598.874,32.317 598.939 C 32.512 599.004,32.586 599.194,32.482 599.362 C 32.379 599.529,32.453 599.667,32.647 599.667 C 32.841 599.667,33.000 599.842,33.000 600.057 C 33.000 600.584,35.040 604.781,35.421 605.037 C 35.587 605.149,35.732 605.374,35.742 605.537 C 35.762 605.857,36.395 606.965,37.381 608.403 C 37.722 608.900,38.000 609.394,38.000 609.501 C 38.000 609.608,38.600 610.507,39.333 611.500 C 40.067 612.493,40.667 613.437,40.667 613.598 C 40.667 613.759,41.267 614.522,42.000 615.293 C 42.733 616.064,43.333 616.808,43.333 616.946 C 43.333 617.084,44.158 618.077,45.167 619.152 C 46.175 620.227,47.000 621.183,47.000 621.278 C 47.000 621.574,51.415 625.667,51.735 625.667 C 51.902 625.667,51.947 625.817,51.833 626.000 C 51.720 626.183,51.749 626.334,51.897 626.335 C 52.045 626.336,52.707 626.823,53.368 627.418 C 55.859 629.663,57.193 630.775,58.000 631.284 C 58.458 631.573,59.274 632.227,59.813 632.738 C 60.352 633.249,60.991 633.667,61.233 633.667 C 61.475 633.667,61.930 633.967,62.244 634.333 C 62.558 634.700,62.955 635.000,63.126 635.000 C 63.297 635.000,63.929 635.375,64.530 635.833 C 65.131 636.292,65.722 636.667,65.843 636.667 C 65.964 636.667,66.464 636.951,66.952 637.299 C 68.228 638.208,73.723 641.000,74.235 641.000 C 74.472 641.000,74.667 641.175,74.667 641.389 C 74.667 641.603,74.760 641.685,74.873 641.571 C 74.987 641.457,75.962 641.809,77.040 642.354 C 78.118 642.898,79.000 643.260,79.000 643.160 C 79.000 643.059,79.337 643.162,79.750 643.390 C 80.162 643.617,80.650 643.818,80.833 643.837 C 81.214 643.876,82.263 644.262,83.000 644.634 C 83.275 644.773,84.625 645.156,86.000 645.486 C 87.375 645.816,88.725 646.164,89.000 646.260 C 89.275 646.356,89.706 646.476,89.957 646.527 C 90.208 646.578,91.108 646.775,91.957 646.966 C 92.806 647.157,93.950 647.384,94.500 647.472 C 95.050 647.560,95.875 647.704,96.333 647.792 C 102.968 649.071,113.939 649.099,121.500 647.857 C 121.867 647.797,123.067 647.644,124.167 647.518 C 125.267 647.392,126.632 647.145,127.201 646.968 C 128.494 646.567,129.507 646.338,131.000 646.109 C 131.642 646.011,132.317 645.814,132.500 645.671 C 132.683 645.527,133.358 645.301,134.000 645.167 C 134.642 645.033,135.348 644.777,135.569 644.599 C 135.790 644.422,136.127 644.373,136.319 644.491 C 136.510 644.609,136.667 644.560,136.667 644.382 C 136.667 644.204,137.253 643.960,137.969 643.839 C 138.686 643.717,139.548 643.409,139.886 643.153 C 140.224 642.897,140.725 642.678,141.000 642.667 C 141.275 642.655,142.250 642.277,143.167 641.826 C 144.083 641.375,145.021 641.005,145.250 641.003 C 145.479 641.001,145.667 640.825,145.667 640.611 C 145.667 640.397,145.761 640.316,145.875 640.431 C 146.108 640.663,149.769 638.731,149.944 638.283 C 150.006 638.128,150.315 638.000,150.632 638.000 C 150.948 638.000,151.570 637.663,152.013 637.250 C 152.455 636.837,152.857 636.533,152.905 636.574 C 153.087 636.728,154.189 636.180,154.756 635.653 C 155.080 635.353,155.752 634.895,156.251 634.637 C 157.106 634.193,158.214 633.355,159.187 632.417 C 159.425 632.188,159.761 632.000,159.935 632.000 C 160.638 632.000,170.133 623.577,169.802 623.247 C 169.728 623.173,170.042 622.912,170.501 622.666 C 170.959 622.421,171.333 622.102,171.333 621.957 C 171.333 621.811,171.899 621.124,172.591 620.430 C 174.393 618.620,176.333 616.166,176.333 615.696 C 176.333 615.475,176.461 615.373,176.616 615.469 C 176.772 615.565,177.110 615.237,177.366 614.739 C 177.623 614.241,178.171 613.460,178.583 613.003 C 178.996 612.547,179.333 612.003,179.333 611.794 C 179.333 611.586,179.551 611.234,179.817 611.014 C 180.332 610.586,182.358 607.148,182.307 606.788 C 182.290 606.671,182.413 606.483,182.581 606.371 C 183.455 605.785,188.333 595.797,188.333 594.592 C 188.333 594.340,188.453 593.991,188.599 593.817 C 188.746 593.643,189.133 592.675,189.461 591.667 C 189.789 590.658,190.179 589.533,190.328 589.167 C 190.477 588.800,190.843 587.525,191.141 586.333 C 193.182 578.183,193.719 574.204,194.039 564.833 C 194.105 562.916,193.762 555.983,193.528 554.500 C 193.441 553.950,193.214 552.450,193.024 551.167 C 192.833 549.883,192.598 548.458,192.502 548.000 C 192.405 547.542,192.239 546.717,192.133 546.167 C 192.026 545.617,191.901 545.017,191.855 544.833 C 191.809 544.650,191.660 544.050,191.524 543.500 C 191.389 542.950,191.193 542.275,191.088 542.000 C 190.984 541.725,190.863 541.331,190.818 541.124 C 190.614 540.172,189.603 536.885,189.265 536.071 C 189.058 535.574,188.864 535.092,188.832 535.000 C 188.671 534.525,188.171 533.340,187.568 532.000 C 187.197 531.175,186.870 530.425,186.843 530.333 C 186.815 530.242,186.539 529.586,186.230 528.876 C 185.920 528.166,185.667 527.464,185.667 527.316 C 185.667 527.169,185.434 526.815,185.149 526.530 C 184.864 526.245,184.567 525.682,184.490 525.280 C 184.412 524.878,184.216 524.463,184.053 524.358 C 183.890 524.253,183.646 523.814,183.512 523.382 C 183.238 522.506,181.953 520.447,181.175 519.639 C 180.895 519.348,180.667 518.975,180.667 518.808 C 180.667 517.835,172.834 507.801,169.667 504.716 C 166.340 501.476,165.667 500.860,165.667 501.058 C 165.667 501.177,165.024 500.650,164.238 499.887 C 162.837 498.527,161.611 497.574,160.206 496.755 C 159.818 496.528,159.640 496.341,159.811 496.338 C 160.183 496.332,154.776 492.777,152.662 491.638 C 151.841 491.196,151.089 490.729,150.992 490.601 C 150.754 490.287,145.407 487.622,145.129 487.679 C 145.007 487.703,144.801 487.551,144.671 487.340 C 144.540 487.128,144.223 486.914,143.967 486.862 C 143.710 486.811,143.050 486.571,142.500 486.329 C 141.950 486.087,141.425 485.864,141.333 485.833 C 141.242 485.803,140.748 485.604,140.235 485.391 C 139.723 485.179,138.898 484.908,138.402 484.790 C 137.906 484.671,137.200 484.413,136.833 484.216 C 136.467 484.018,135.942 483.843,135.667 483.825 C 135.392 483.807,134.575 483.535,133.852 483.220 C 133.130 482.905,132.080 482.587,131.519 482.513 C 130.959 482.439,130.500 482.357,130.500 482.330 C 130.500 482.304,130.209 482.228,129.853 482.161 C 129.497 482.095,128.860 481.953,128.436 481.847 L 127.667 481.654 127.667 456.150 C 127.667 436.047,127.755 430.615,128.083 430.500 C 128.313 430.419,128.950 430.287,129.500 430.204 C 130.050 430.122,130.500 430.030,130.500 430.000 C 130.500 429.969,130.800 429.891,131.167 429.826 C 133.428 429.423,136.645 428.667,137.500 428.338 C 138.050 428.126,138.537 427.964,138.583 427.977 C 138.629 427.989,138.704 427.989,138.750 427.974 C 138.796 427.960,139.125 427.895,139.480 427.828 C 139.836 427.761,140.511 427.598,140.980 427.465 C 141.450 427.333,141.946 427.249,142.083 427.279 C 142.221 427.309,142.333 427.183,142.333 427.000 C 142.333 426.817,142.624 426.667,142.978 426.667 C 143.333 426.667,144.046 426.492,144.562 426.278 C 145.078 426.064,145.575 425.871,145.667 425.849 C 145.758 425.828,146.171 425.622,146.583 425.393 C 146.996 425.164,147.333 425.047,147.333 425.132 C 147.333 425.377,152.878 423.138,154.192 422.362 C 154.842 421.979,155.258 421.853,155.116 422.083 C 154.975 422.312,155.303 422.207,155.846 421.850 C 157.294 420.897,159.770 419.670,160.250 419.668 C 160.479 419.667,160.667 419.547,160.667 419.400 C 160.667 419.254,161.192 418.944,161.833 418.712 C 162.475 418.480,163.000 418.150,163.000 417.978 C 163.000 417.807,163.225 417.667,163.500 417.667 C 163.775 417.667,164.000 417.517,164.000 417.333 C 164.000 417.150,164.113 417.016,164.250 417.036 C 164.754 417.109,166.000 416.580,166.000 416.294 C 166.000 416.133,166.162 416.000,166.361 416.000 C 166.559 416.000,167.346 415.494,168.111 414.875 C 168.875 414.256,170.011 413.490,170.635 413.173 C 171.260 412.855,171.935 412.459,172.135 412.293 C 173.536 411.130,175.689 409.667,176.000 409.667 C 176.205 409.667,176.280 409.517,176.167 409.333 C 176.053 409.150,176.126 409.000,176.328 409.000 C 176.719 409.000,177.123 408.702,178.685 407.261 C 179.225 406.763,179.667 406.439,179.667 406.541 C 179.667 406.643,180.492 405.881,181.500 404.848 C 182.508 403.815,183.333 403.077,183.333 403.208 C 183.333 403.340,184.946 401.797,186.917 399.781 C 191.566 395.024,192.667 393.799,192.667 393.381 C 192.667 392.074,194.689 391.974,195.934 393.219 C 196.180 393.465,196.604 393.667,196.877 393.667 C 197.150 393.667,197.287 393.806,197.181 393.976 C 197.076 394.146,197.316 394.389,197.715 394.515 C 198.113 394.642,199.230 395.389,200.196 396.176 C 201.162 396.963,202.263 397.705,202.643 397.826 C 203.023 397.946,203.489 398.335,203.679 398.689 C 203.868 399.043,204.243 399.333,204.512 399.333 C 204.780 399.333,205.000 399.473,205.000 399.644 C 205.000 399.815,205.327 400.059,205.726 400.185 C 206.125 400.312,206.836 400.772,207.306 401.208 C 207.775 401.644,208.274 402.000,208.413 402.000 C 208.664 402.000,212.218 404.635,213.471 405.750 C 213.831 406.071,214.322 406.333,214.563 406.333 C 214.803 406.333,215.000 406.449,215.000 406.591 C 215.000 406.733,215.500 407.118,216.111 407.447 C 216.722 407.776,217.622 408.416,218.111 408.869 C 218.600 409.323,219.000 409.614,219.000 409.516 C 219.000 409.418,219.387 409.674,219.860 410.086 C 220.333 410.497,220.864 410.833,221.039 410.833 C 221.214 410.833,221.465 410.989,221.595 411.180 C 221.970 411.725,225.970 414.667,226.337 414.667 C 226.518 414.667,226.667 414.798,226.667 414.960 C 226.667 415.121,227.117 415.439,227.667 415.667 C 228.217 415.894,228.667 416.222,228.667 416.393 C 228.667 416.565,228.817 416.613,229.000 416.500 C 229.183 416.387,229.333 416.458,229.333 416.657 C 229.333 416.857,229.596 417.121,229.917 417.244 C 230.548 417.485,230.695 417.592,232.101 418.839 C 232.614 419.294,233.161 419.667,233.315 419.667 C 233.827 419.667,233.952 420.570,233.621 421.876 C 233.441 422.586,233.243 423.486,233.181 423.875 C 233.119 424.265,232.917 424.865,232.733 425.209 C 232.550 425.552,232.401 425.948,232.403 426.089 C 232.412 426.649,231.878 429.910,231.468 431.801 C 231.259 432.765,231.212 433.333,230.786 440.000 C 230.400 446.059,230.767 452.824,231.714 457.083 C 231.908 457.954,232.115 459.079,232.174 459.583 C 232.472 462.113,232.742 463.519,233.039 464.073 C 233.219 464.409,233.433 465.206,233.515 465.844 C 233.596 466.481,233.806 467.265,233.980 467.585 C 234.154 467.905,234.387 468.729,234.497 469.417 C 234.607 470.104,234.840 470.667,235.015 470.667 C 235.190 470.667,235.333 470.919,235.333 471.226 C 235.333 471.823,236.050 474.055,236.332 474.333 C 236.424 474.425,236.549 474.725,236.609 475.000 C 236.669 475.275,236.932 475.988,237.193 476.583 C 237.453 477.179,237.904 478.229,238.194 478.917 C 239.026 480.890,240.717 484.092,241.383 484.956 C 241.717 485.390,241.909 485.877,241.809 486.039 C 241.709 486.201,241.768 486.333,241.940 486.333 C 242.112 486.333,242.447 486.803,242.685 487.378 C 242.923 487.952,243.448 488.814,243.852 489.294 C 244.255 489.774,244.601 490.281,244.619 490.422 C 244.638 490.562,245.256 491.493,245.993 492.491 C 246.730 493.489,247.333 494.470,247.333 494.672 C 247.333 494.874,247.483 494.947,247.667 494.833 C 247.850 494.720,248.000 494.861,248.000 495.147 C 248.000 495.433,248.130 495.667,248.289 495.667 C 248.448 495.667,248.956 496.238,249.419 496.937 C 249.881 497.636,250.782 498.761,251.419 499.437 C 252.057 500.113,252.501 500.667,252.405 500.667 C 252.310 500.667,253.627 502.017,255.333 503.667 C 257.039 505.317,258.494 506.667,258.567 506.667 C 258.639 506.667,259.066 507.064,259.516 507.549 C 259.965 508.034,260.333 508.310,260.333 508.162 C 260.333 508.014,260.802 508.442,261.376 509.113 C 261.949 509.784,262.571 510.333,262.758 510.333 C 263.122 510.333,266.092 512.650,266.278 513.080 C 266.340 513.221,266.517 513.259,266.672 513.163 C 266.827 513.067,267.152 513.270,267.394 513.613 C 267.636 513.957,268.208 514.356,268.667 514.500 C 269.125 514.644,269.743 515.041,270.039 515.381 C 270.336 515.721,270.748 516.000,270.956 516.000 C 271.163 516.000,271.333 516.120,271.333 516.266 C 271.333 516.413,271.858 516.723,272.500 516.955 C 273.142 517.187,273.667 517.542,273.667 517.744 C 273.667 517.946,273.761 518.016,273.877 517.901 C 273.993 517.785,274.706 518.042,275.461 518.471 C 278.191 520.025,280.667 521.308,280.667 521.169 C 280.667 521.091,281.404 521.398,282.305 521.850 C 283.206 522.303,286.019 523.342,288.555 524.160 C 291.091 524.978,293.590 525.792,294.108 525.970 C 294.625 526.148,295.263 526.212,295.524 526.111 C 295.786 526.011,296.000 526.120,296.000 526.353 C 296.000 526.587,296.082 526.695,296.183 526.595 C 296.284 526.494,296.996 526.559,297.766 526.740 C 299.285 527.097,300.379 527.269,302.602 527.501 C 303.392 527.583,304.167 527.731,304.325 527.828 C 305.504 528.557,325.488 528.562,326.666 527.834 C 326.807 527.747,327.952 527.525,329.211 527.341 C 333.343 526.737,334.533 526.487,336.000 525.914 C 336.275 525.806,337.325 525.537,338.333 525.314 C 339.342 525.092,340.711 524.636,341.375 524.302 C 342.040 523.968,342.664 523.775,342.761 523.872 C 342.858 523.970,343.400 523.810,343.966 523.518 C 344.531 523.226,345.107 522.976,345.247 522.964 C 345.386 522.951,346.129 522.654,346.898 522.304 C 347.667 521.953,348.530 521.667,348.815 521.667 C 349.100 521.667,349.333 521.547,349.333 521.400 C 349.333 521.254,349.896 520.939,350.583 520.702 C 352.030 520.202,355.754 518.351,356.000 518.011 C 356.092 517.884,356.654 517.568,357.250 517.309 C 357.846 517.049,358.333 516.724,358.333 516.585 C 358.333 516.447,358.486 516.333,358.673 516.333 C 359.127 516.333,365.268 512.282,366.385 511.245 C 366.872 510.793,367.772 510.068,368.385 509.633 C 370.278 508.291,371.052 507.602,374.161 504.494 C 376.740 501.915,380.095 498.285,380.935 497.167 C 381.840 495.960,383.565 493.780,383.899 493.419 C 384.118 493.182,384.633 492.391,385.043 491.661 C 385.454 490.931,385.921 490.333,386.081 490.333 C 386.241 490.333,386.280 490.183,386.167 490.000 C 386.053 489.817,386.082 489.665,386.230 489.663 C 386.379 489.661,386.787 489.061,387.137 488.330 C 387.487 487.598,387.882 487.000,388.013 487.000 C 388.145 487.000,388.447 486.512,388.684 485.917 C 388.922 485.321,389.396 484.427,389.737 483.931 C 390.078 483.435,390.527 482.535,390.733 481.931 C 390.940 481.327,391.207 480.758,391.327 480.667 C 391.740 480.351,393.607 476.052,393.415 475.859 C 393.309 475.753,393.422 475.667,393.667 475.667 C 393.911 475.667,394.025 475.581,393.921 475.476 C 393.816 475.372,394.236 473.999,394.853 472.425 C 395.471 470.852,395.898 469.438,395.802 469.282 C 395.706 469.127,395.774 469.000,395.954 469.000 C 396.250 469.000,396.434 468.459,396.804 466.499 C 396.873 466.131,397.089 465.231,397.284 464.499 C 397.478 463.766,397.720 462.687,397.820 462.100 C 397.921 461.514,398.127 460.689,398.278 460.267 C 398.429 459.845,398.592 458.751,398.640 457.836 C 398.688 456.921,398.822 456.021,398.937 455.836 C 399.623 454.742,400.045 444.632,399.640 439.000 C 399.204 432.930,398.998 430.848,398.783 430.333 C 398.667 430.058,398.526 429.181,398.467 428.384 C 398.409 427.587,398.206 426.748,398.017 426.520 C 397.827 426.292,397.739 426.039,397.820 425.958 C 397.901 425.877,397.586 424.391,397.121 422.656 C 396.656 420.920,396.196 419.087,396.100 418.583 C 396.003 418.079,395.766 417.667,395.573 417.667 C 395.380 417.667,395.316 417.573,395.431 417.458 C 395.546 417.343,395.428 416.740,395.168 416.118 C 394.908 415.497,394.692 414.915,394.687 414.826 C 394.649 414.101,394.201 413.000,393.944 413.000 C 393.770 413.000,393.714 412.860,393.819 412.690 C 393.925 412.519,393.856 412.284,393.667 412.167 C 393.477 412.050,393.409 411.814,393.514 411.644 C 393.620 411.473,393.559 411.333,393.379 411.333 C 393.200 411.333,392.958 410.901,392.842 410.373 C 392.661 409.551,391.837 407.785,390.405 405.154 C 390.209 404.795,389.957 404.275,389.845 404.000 C 389.621 403.451,389.278 402.876,387.910 400.757 C 387.409 399.981,387.000 399.217,387.000 399.058 C 387.000 398.900,386.704 398.502,386.341 398.174 C 385.979 397.846,385.756 397.458,385.847 397.312 C 385.937 397.166,385.852 396.948,385.659 396.828 C 385.465 396.709,384.954 396.061,384.522 395.389 C 384.091 394.717,383.422 393.835,383.036 393.431 C 382.649 393.026,382.330 392.576,382.326 392.431 C 382.322 392.285,381.642 391.417,380.814 390.500 C 379.987 389.583,378.453 387.877,377.405 386.708 C 376.357 385.540,375.305 384.415,375.067 384.208 C 374.829 384.002,374.454 383.639,374.234 383.401 C 374.014 383.163,373.640 382.788,373.404 382.567 C 373.168 382.347,372.251 381.492,371.367 380.667 C 369.216 378.660,368.000 377.636,368.000 377.832 C 368.000 378.006,366.922 377.163,366.042 376.302 C 365.744 376.010,365.012 375.490,364.417 375.147 C 363.821 374.804,363.333 374.397,363.333 374.244 C 363.333 374.091,362.883 373.808,362.333 373.617 C 361.783 373.425,361.333 373.151,361.333 373.008 C 361.333 372.865,360.883 372.561,360.333 372.333 C 359.783 372.106,359.333 371.810,359.333 371.677 C 359.333 371.544,358.771 371.189,358.083 370.888 C 357.396 370.588,355.258 369.502,353.333 368.474 C 351.408 367.447,348.708 366.166,347.333 365.627 C 345.958 365.088,344.533 364.526,344.167 364.380 C 340.857 363.054,335.186 361.457,332.667 361.140 C 331.842 361.036,330.708 360.810,330.148 360.638 C 329.588 360.465,328.313 360.244,327.315 360.145 C 326.317 360.047,324.675 359.880,323.667 359.774 C 318.987 359.285,304.614 359.594,302.504 360.229 C 302.140 360.339,301.465 360.469,301.004 360.520 C 300.544 360.570,299.342 360.784,298.333 360.994 C 297.325 361.205,296.125 361.448,295.667 361.534 C 295.208 361.620,294.308 361.866,293.667 362.080 C 293.025 362.293,292.313 362.431,292.083 362.386 C 291.854 362.341,291.667 362.470,291.667 362.672 C 291.667 362.874,291.527 362.953,291.356 362.848 C 291.186 362.742,290.950 362.811,290.833 363.000 C 290.716 363.189,290.503 363.272,290.360 363.183 C 290.216 363.094,289.289 363.333,288.299 363.713 C 287.310 364.094,285.938 364.570,285.250 364.772 C 284.563 364.973,284.000 365.252,284.000 365.392 C 284.000 365.531,283.775 365.559,283.500 365.454 C 283.225 365.348,283.000 365.404,283.000 365.578 C 283.000 365.751,282.363 366.099,281.583 366.351 C 280.804 366.603,279.290 367.317,278.219 367.938 C 277.148 368.560,276.093 369.094,275.875 369.126 C 275.657 369.158,275.033 369.492,274.489 369.867 C 273.945 370.243,273.042 370.732,272.482 370.955 C 271.923 371.178,271.060 371.735,270.566 372.193 C 270.071 372.652,269.667 372.936,269.667 372.826 C 269.667 372.603,265.696 375.285,265.167 375.866 C 264.983 376.067,264.292 376.553,263.631 376.947 C 262.970 377.340,262.070 378.017,261.631 378.451 C 261.192 378.885,260.130 379.845,259.270 380.585 C 258.411 381.324,257.798 382.020,257.909 382.131 C 258.020 382.243,257.946 382.333,257.743 382.333 C 257.541 382.333,256.184 383.533,254.727 385.000 C 251.464 388.285,251.822 388.262,248.167 385.415 C 247.983 385.272,246.933 384.564,245.833 383.842 C 244.733 383.119,243.683 382.406,243.500 382.258 C 242.562 381.499,240.104 379.759,239.197 379.212 C 238.630 378.871,238.056 378.421,237.922 378.212 C 237.787 378.003,237.672 377.983,237.667 378.167 C 237.660 378.381,237.569 378.378,237.412 378.157 C 237.098 377.719,232.117 374.000,231.844 374.000 C 231.730 374.000,231.233 373.625,230.739 373.167 C 230.245 372.708,229.659 372.333,229.437 372.333 C 229.215 372.333,228.880 372.071,228.693 371.750 C 228.506 371.429,228.349 371.285,228.343 371.430 C 228.338 371.574,228.005 371.387,227.604 371.013 C 227.203 370.639,226.678 370.333,226.437 370.333 C 226.197 370.333,225.999 370.221,225.998 370.083 C 225.996 369.946,225.434 369.458,224.748 369.000 C 224.061 368.542,223.232 367.925,222.904 367.630 C 222.576 367.335,221.451 366.513,220.404 365.804 C 219.357 365.095,217.736 363.949,216.803 363.258 C 215.870 362.566,215.001 362.000,214.872 362.000 C 214.744 362.000,214.457 361.847,214.236 361.660 C 214.015 361.474,213.483 361.032,213.054 360.679 C 212.272 360.035,212.448 358.337,213.575 355.667 C 213.691 355.392,213.819 354.942,213.860 354.667 C 213.901 354.392,214.168 353.527,214.454 352.745 C 214.740 351.964,214.967 351.248,214.960 351.156 C 214.939 350.901,216.054 345.906,216.260 345.333 C 216.358 345.058,216.417 344.726,216.390 344.595 C 216.363 344.464,216.484 343.980,216.659 343.521 C 216.834 343.061,217.064 341.818,217.171 340.759 C 217.278 339.700,217.501 338.383,217.666 337.833 C 218.202 336.049,218.711 327.869,218.663 321.833 C 218.631 317.986,218.582 317.036,218.206 313.000 C 218.112 311.992,217.948 310.201,217.841 309.020 C 217.734 307.840,217.407 305.740,217.114 304.354 C 216.820 302.967,216.526 301.533,216.458 301.167 C 216.354 300.599,215.902 298.486,215.141 295.010 C 215.042 294.558,214.821 294.019,214.650 293.813 C 214.479 293.607,214.434 293.344,214.550 293.227 C 214.667 293.111,214.608 292.825,214.419 292.591 C 214.231 292.358,213.966 291.642,213.829 291.000 C 213.693 290.358,213.426 289.458,213.235 289.000 C 213.045 288.542,212.864 288.092,212.832 288.000 C 212.801 287.908,212.657 287.563,212.512 287.233 C 212.223 286.573,213.429 285.000,214.225 285.000 C 214.468 285.000,214.667 284.841,214.667 284.647 C 214.667 284.453,214.795 284.373,214.951 284.470 C 215.108 284.567,215.806 284.138,216.504 283.518 C 217.201 282.898,218.151 282.190,218.615 281.945 C 219.079 281.700,219.791 281.200,220.198 280.833 C 221.360 279.785,221.955 279.333,222.176 279.333 C 222.429 279.333,225.347 277.348,225.919 276.788 C 226.149 276.562,226.639 276.281,227.007 276.165 C 227.375 276.048,227.590 275.813,227.485 275.643 C 227.380 275.473,227.492 275.333,227.734 275.333 C 227.976 275.333,228.552 274.996,229.016 274.583 C 229.479 274.171,230.038 273.796,230.258 273.751 C 230.478 273.706,230.998 273.377,231.413 273.020 C 232.698 271.912,234.473 270.675,235.083 270.460 C 235.404 270.348,235.667 270.123,235.667 269.961 C 235.667 269.799,235.823 269.667,236.014 269.667 C 236.205 269.667,236.543 269.512,236.764 269.323 C 236.985 269.135,237.992 268.386,239.000 267.660 C 240.008 266.934,241.184 266.038,241.612 265.670 C 242.040 265.301,242.549 265.000,242.744 265.000 C 242.939 265.000,243.739 264.475,244.522 263.833 C 245.305 263.192,246.044 262.667,246.163 262.667 C 246.283 262.667,246.577 262.479,246.816 262.250 C 247.056 262.021,247.588 261.608,248.000 261.333 C 248.412 261.058,248.917 260.682,249.124 260.496 C 249.331 260.311,249.912 259.976,250.417 259.753 C 250.921 259.530,251.333 259.194,251.333 259.007 C 251.333 258.320,252.185 258.696,252.833 259.670 C 253.200 260.220,253.765 260.755,254.088 260.859 C 254.412 260.963,254.614 261.150,254.537 261.274 C 254.460 261.398,255.065 262.100,255.882 262.833 C 256.699 263.567,258.043 264.804,258.870 265.583 C 259.696 266.362,260.446 267.000,260.535 267.000 C 260.624 267.000,261.046 267.337,261.473 267.750 C 261.900 268.163,262.653 268.791,263.146 269.146 C 263.639 269.501,264.320 270.026,264.660 270.313 C 264.999 270.599,265.592 271.096,265.976 271.417 C 266.360 271.738,266.898 272.000,267.170 272.000 C 267.443 272.000,267.667 272.150,267.667 272.333 C 267.667 272.517,267.876 272.667,268.131 272.667 C 268.386 272.667,268.685 272.901,268.795 273.188 C 268.905 273.474,269.146 273.616,269.331 273.501 C 269.516 273.387,269.667 273.421,269.667 273.577 C 269.667 273.732,270.529 274.362,271.583 274.977 C 272.637 275.593,273.906 276.374,274.403 276.715 C 274.900 277.055,275.477 277.333,275.685 277.333 C 275.893 277.333,276.505 277.647,277.044 278.031 C 277.583 278.415,278.206 278.760,278.429 278.797 C 278.651 278.835,279.171 279.051,279.583 279.278 C 279.996 279.505,280.333 279.614,280.333 279.522 C 280.333 279.429,280.879 279.724,281.547 280.177 C 282.214 280.630,283.009 281.000,283.313 281.000 C 283.618 281.000,284.012 281.146,284.190 281.324 C 284.369 281.502,284.886 281.716,285.340 281.799 C 285.795 281.882,286.242 281.979,286.333 282.015 C 286.425 282.050,286.612 282.061,286.750 282.039 C 286.888 282.018,287.000 282.150,287.000 282.333 C 287.000 282.517,287.112 282.649,287.250 282.627 C 287.387 282.605,287.575 282.618,287.667 282.655 C 287.758 282.691,288.272 282.793,288.808 282.880 C 289.344 282.967,290.094 283.210,290.474 283.419 C 290.855 283.629,291.467 283.834,291.833 283.876 C 292.200 283.917,293.090 284.170,293.811 284.437 C 294.533 284.704,295.358 284.887,295.645 284.842 C 295.932 284.798,296.242 284.875,296.333 285.014 C 296.484 285.242,297.235 285.411,300.083 285.857 C 300.587 285.935,301.487 286.084,302.083 286.186 C 303.297 286.394,304.502 286.535,307.667 286.837 C 310.593 287.116,320.086 287.272,320.492 287.047 C 320.671 286.948,321.571 286.841,322.492 286.809 C 324.811 286.728,328.769 286.309,329.090 286.111 C 329.236 286.021,329.873 285.883,330.505 285.804 C 331.137 285.726,332.594 285.432,333.744 285.152 C 336.448 284.491,336.482 284.482,338.833 283.839 C 339.933 283.538,341.188 283.220,341.620 283.133 C 342.053 283.045,342.628 282.753,342.897 282.484 C 343.167 282.214,343.521 282.076,343.684 282.177 C 343.847 282.278,344.391 282.092,344.893 281.764 C 345.394 281.435,345.811 281.221,345.819 281.288 C 345.849 281.544,348.667 280.547,348.667 280.281 C 348.667 280.126,348.836 280.000,349.042 280.000 C 349.406 280.000,353.988 277.932,355.000 277.311 C 355.275 277.142,356.137 276.686,356.917 276.299 C 357.696 275.911,358.333 275.460,358.333 275.297 C 358.333 275.133,358.537 275.000,358.785 275.000 C 359.034 275.000,359.897 274.497,360.702 273.882 C 361.508 273.267,362.504 272.657,362.917 272.526 C 363.329 272.395,363.667 272.149,363.667 271.978 C 363.667 271.807,363.856 271.667,364.086 271.667 C 364.317 271.667,364.703 271.352,364.943 270.968 C 365.183 270.583,365.460 270.349,365.559 270.448 C 365.739 270.628,365.910 270.509,367.631 269.000 C 368.154 268.542,369.162 267.717,369.872 267.167 C 372.217 265.350,380.667 256.626,380.667 256.021 C 380.667 255.826,380.815 255.667,380.996 255.667 C 381.177 255.667,381.720 255.041,382.203 254.276 C 382.686 253.511,383.211 252.724,383.371 252.526 C 384.671 250.916,386.333 248.650,386.333 248.487 C 386.333 248.377,386.777 247.641,387.320 246.852 C 387.863 246.064,388.213 245.324,388.098 245.209 C 387.983 245.094,388.073 245.000,388.297 245.000 C 388.522 245.000,388.621 244.863,388.518 244.695 C 388.414 244.527,388.467 244.340,388.636 244.278 C 389.100 244.110,393.018 236.299,392.809 235.961 C 392.709 235.799,392.786 235.667,392.980 235.667 C 393.174 235.667,393.333 235.397,393.333 235.067 C 393.333 234.737,393.513 234.287,393.733 234.067 C 393.953 233.847,393.991 233.664,393.817 233.662 C 393.642 233.659,393.663 233.546,393.862 233.412 C 394.229 233.163,396.344 227.391,396.517 226.167 C 396.569 225.800,396.635 225.500,396.664 225.500 C 396.694 225.500,396.775 225.275,396.846 225.000 C 397.388 222.886,397.747 221.376,397.875 220.667 C 397.958 220.208,398.102 219.583,398.194 219.277 C 398.528 218.166,398.695 217.099,399.174 213.000 C 399.249 212.358,399.402 211.158,399.513 210.333 C 400.016 206.592,399.881 198.576,399.211 192.500 C 399.130 191.767,398.965 190.277,398.844 189.189 C 398.724 188.102,398.490 186.959,398.324 186.650 C 398.159 186.341,398.086 186.025,398.163 185.948 C 398.240 185.871,398.005 184.689,397.640 183.321 C 397.275 181.953,396.911 180.405,396.833 179.881 C 396.754 179.357,396.551 178.757,396.382 178.548 C 396.214 178.338,395.970 177.529,395.842 176.750 C 395.713 175.971,395.446 175.333,395.248 175.333 C 395.051 175.333,394.974 175.248,395.078 175.144 C 395.368 174.854,394.119 171.536,392.303 167.777 C 391.403 165.912,390.667 164.287,390.667 164.166 C 390.667 164.045,389.729 162.375,388.583 160.456 C 387.438 158.537,386.221 156.487,385.881 155.900 C 385.540 155.313,385.049 154.712,384.790 154.563 C 384.531 154.414,384.406 154.152,384.513 153.980 C 384.619 153.807,384.556 153.667,384.372 153.667 C 384.188 153.667,383.656 153.029,383.189 152.250 C 382.722 151.471,382.338 150.983,382.335 151.167 C 382.333 151.350,382.020 150.991,381.641 150.368 C 381.262 149.746,380.736 149.022,380.473 148.759 C 380.211 148.496,379.839 147.989,379.648 147.631 C 379.456 147.274,379.187 147.051,379.048 147.137 C 378.910 147.223,378.521 146.781,378.184 146.156 C 377.847 145.531,377.443 145.099,377.286 145.196 C 377.129 145.293,377.000 145.240,377.000 145.079 C 377.000 144.740,373.414 141.000,373.089 141.000 C 372.971 141.000,372.152 140.219,371.270 139.265 C 370.388 138.311,369.667 137.643,369.667 137.782 C 369.667 137.921,369.312 137.652,368.878 137.184 C 368.445 136.716,367.927 136.333,367.728 136.333 C 367.529 136.333,367.247 136.124,367.100 135.869 C 366.953 135.614,365.858 134.763,364.667 133.979 C 363.475 133.195,362.425 132.461,362.333 132.348 C 362.045 131.992,358.898 130.000,358.624 130.000 C 358.481 130.000,357.794 129.612,357.098 129.138 C 356.402 128.664,354.408 127.589,352.667 126.749 C 349.252 125.103,349.254 125.104,348.480 125.042 C 348.195 125.019,348.053 124.850,348.167 124.667 C 348.280 124.483,348.064 124.315,347.686 124.292 C 346.828 124.240,346.692 124.203,345.667 123.753 C 344.835 123.388,344.131 123.148,343.500 123.014 C 343.317 122.975,343.017 122.833,342.833 122.698 C 342.650 122.564,341.825 122.259,341.000 122.021 C 340.175 121.783,339.275 121.506,339.000 121.406 C 338.369 121.176,338.446 121.200,336.668 120.692 C 334.930 120.195,334.181 120.026,332.926 119.847 C 332.427 119.776,331.725 119.624,331.366 119.510 C 331.007 119.397,330.214 119.255,329.604 119.196 C 328.993 119.137,328.045 118.991,327.497 118.872 C 324.296 118.177,310.166 117.801,306.833 118.322 C 305.733 118.494,303.858 118.729,302.667 118.844 C 301.475 118.960,300.453 119.183,300.395 119.342 C 300.337 119.500,300.100 119.556,299.868 119.467 C 299.635 119.378,298.782 119.466,297.973 119.664 C 297.163 119.861,296.200 120.075,295.833 120.138 C 295.467 120.201,294.792 120.403,294.333 120.587 C 293.875 120.770,293.386 120.932,293.247 120.945 C 291.917 121.079,290.667 121.473,290.667 121.759 C 290.667 121.953,290.573 122.017,290.458 121.902 C 290.343 121.787,289.727 121.911,289.089 122.178 C 288.451 122.444,287.795 122.579,287.631 122.478 C 287.467 122.377,287.333 122.453,287.333 122.647 C 287.333 122.841,286.994 123.000,286.578 123.000 C 286.163 123.000,285.280 123.291,284.615 123.648 C 283.950 124.004,283.336 124.225,283.251 124.140 C 283.165 124.054,282.905 124.213,282.673 124.492 C 282.441 124.771,282.064 125.000,281.834 125.000 C 281.248 125.000,277.913 126.504,276.417 127.442 C 275.729 127.874,274.748 128.330,274.236 128.456 C 273.634 128.605,273.388 128.829,273.540 129.093 C 273.668 129.317,273.653 129.391,273.507 129.259 C 273.230 129.008,271.333 129.975,271.333 130.366 C 271.333 130.489,271.071 130.675,270.750 130.780 C 269.718 131.119,266.102 133.522,265.299 134.402 C 265.006 134.724,264.691 134.914,264.601 134.823 C 264.510 134.732,263.877 135.185,263.194 135.829 C 262.511 136.473,261.831 137.000,261.682 137.000 C 261.533 137.000,260.869 137.600,260.206 138.333 C 259.544 139.067,258.874 139.667,258.717 139.667 C 258.561 139.667,258.081 140.125,257.652 140.686 C 257.222 141.247,256.450 141.954,255.935 142.258 C 255.421 142.562,255.000 142.926,255.000 143.068 C 255.000 143.209,254.090 144.227,252.977 145.329 C 251.865 146.432,251.077 147.338,251.227 147.343 C 251.377 147.349,251.237 147.506,250.917 147.693 C 250.596 147.880,250.333 148.168,250.333 148.334 C 250.333 148.499,249.785 149.167,249.116 149.817 C 248.446 150.468,248.016 151.000,248.161 151.000 C 248.306 151.000,248.031 151.393,247.551 151.874 C 247.070 152.354,246.759 152.879,246.858 153.040 C 246.958 153.201,246.895 153.333,246.718 153.333 C 246.541 153.333,245.932 154.046,245.364 154.917 C 244.796 155.787,244.069 156.849,243.749 157.275 C 243.063 158.187,241.099 161.738,239.845 164.333 C 239.357 165.342,238.791 166.467,238.587 166.833 C 237.431 168.906,236.222 171.808,236.222 172.511 C 236.222 172.780,236.081 173.000,235.909 173.000 C 235.736 173.000,235.678 173.215,235.779 173.478 C 235.880 173.742,235.798 174.012,235.597 174.079 C 235.396 174.146,235.201 174.493,235.163 174.850 C 235.125 175.208,234.924 175.920,234.716 176.434 C 234.507 176.947,234.255 177.835,234.154 178.406 C 234.053 178.977,233.878 179.595,233.764 179.780 C 233.649 179.964,233.431 180.689,233.278 181.391 C 233.125 182.093,232.846 183.304,232.657 184.083 C 232.321 185.472,232.208 186.075,231.880 188.241 C 231.791 188.831,231.649 189.431,231.565 189.574 C 231.172 190.245,230.690 197.121,230.659 202.500 C 230.630 207.376,231.431 216.704,231.947 217.500 C 232.065 217.683,232.193 218.133,232.230 218.500 C 232.391 220.088,232.708 221.622,233.226 223.333 C 234.052 226.054,234.131 227.000,233.535 227.000 C 233.259 227.000,232.886 227.262,232.707 227.583 C 232.527 227.904,232.257 228.150,232.107 228.130 C 231.798 228.088,229.560 229.698,229.388 230.085 C 229.327 230.224,229.139 230.253,228.972 230.149 C 228.804 230.045,228.667 230.120,228.667 230.314 C 228.667 230.508,228.437 230.667,228.156 230.667 C 227.875 230.667,227.559 230.892,227.454 231.167 C 227.348 231.442,227.122 231.667,226.950 231.667 C 226.778 231.667,226.233 232.042,225.739 232.500 C 225.245 232.958,224.389 233.551,223.837 233.818 C 223.285 234.084,222.427 234.684,221.931 235.151 C 221.435 235.618,220.941 236.000,220.834 236.000 C 220.597 236.000,218.772 237.281,217.866 238.083 C 217.504 238.404,217.088 238.667,216.941 238.667 C 216.665 238.667,215.691 239.400,214.617 240.417 C 214.277 240.737,213.925 241.000,213.833 241.000 C 213.742 241.000,213.554 241.001,213.417 241.002 C 213.279 241.002,212.687 241.452,212.101 242.002 C 211.516 242.551,210.891 243.000,210.713 243.000 C 210.535 243.000,210.339 243.117,210.278 243.260 C 210.217 243.403,208.626 244.558,206.742 245.826 C 204.859 247.094,203.027 248.402,202.673 248.733 C 202.318 249.063,201.941 249.333,201.834 249.333 C 201.531 249.333,199.564 250.766,198.943 251.439 C 198.635 251.771,198.297 252.034,198.192 252.022 C 197.530 251.946,197.319 252.041,197.500 252.333 C 197.613 252.517,197.452 252.667,197.141 252.667 C 196.831 252.667,196.229 253.042,195.804 253.500 C 194.999 254.369,194.333 254.586,194.333 253.980 C 194.333 253.786,194.190 253.716,194.014 253.825 C 193.839 253.933,193.450 253.529,193.150 252.928 C 192.850 252.326,192.092 251.308,191.465 250.667 C 190.838 250.025,188.849 247.985,187.044 246.134 C 185.239 244.283,181.828 241.173,179.464 239.223 C 177.101 237.273,174.929 235.451,174.639 235.172 C 174.348 234.894,173.972 234.667,173.802 234.667 C 173.632 234.667,173.089 234.292,172.594 233.833 C 172.100 233.375,171.480 233.000,171.217 233.000 C 170.953 233.000,170.648 232.765,170.538 232.479 C 170.428 232.192,170.203 232.041,170.037 232.144 C 169.872 232.246,169.651 232.105,169.545 231.831 C 169.440 231.557,169.125 231.333,168.844 231.333 C 168.563 231.333,168.333 231.216,168.333 231.072 C 168.333 230.752,166.265 229.484,165.917 229.590 C 165.779 229.632,165.667 229.517,165.667 229.333 C 165.667 229.150,165.452 229.000,165.190 229.000 C 164.929 229.000,164.510 228.812,164.260 228.583 C 163.332 227.733,156.396 224.147,155.917 224.269 C 155.779 224.305,155.667 224.183,155.667 224.000 C 155.667 223.817,155.501 223.667,155.298 223.667 C 155.095 223.667,154.007 223.229,152.881 222.694 C 150.444 221.537,147.192 220.321,145.917 220.090 C 145.412 219.999,145.000 219.775,145.000 219.593 C 145.000 219.411,144.775 219.348,144.500 219.454 C 144.225 219.559,144.000 219.500,144.000 219.323 C 144.000 219.145,143.887 219.031,143.750 219.069 C 143.612 219.107,142.750 218.887,141.833 218.581 C 140.917 218.274,139.792 217.950,139.333 217.860 C 138.875 217.770,137.675 217.454,136.667 217.157 C 134.929 216.646,134.047 216.449,132.486 216.223 C 132.111 216.169,131.661 216.041,131.486 215.938 C 131.310 215.836,130.435 215.645,129.541 215.516 C 128.646 215.386,127.709 215.201,127.457 215.104 C 127.076 214.958,127.000 210.999,127.000 191.181 L 127.000 167.434 129.917 166.691 C 131.521 166.283,133.058 165.860,133.333 165.753 C 134.053 165.472,134.047 165.473,135.417 165.187 C 136.104 165.043,136.667 164.797,136.667 164.640 C 136.667 164.483,136.876 164.435,137.133 164.533 C 137.389 164.632,137.698 164.552,137.819 164.356 C 137.940 164.160,138.262 164.000,138.534 164.000 C 138.805 164.000,139.990 163.550,141.167 163.000 C 142.343 162.450,143.411 162.000,143.541 162.000 C 144.008 162.000,146.333 160.866,146.333 160.639 C 146.333 160.510,146.744 160.302,147.247 160.176 C 147.749 160.050,148.236 159.846,148.330 159.723 C 148.423 159.600,149.175 159.156,150.000 158.737 C 152.165 157.638,153.347 156.945,154.668 156.001 C 155.309 155.542,155.919 155.167,156.024 155.167 C 156.129 155.167,156.477 154.904,156.798 154.583 C 157.118 154.262,157.502 154.000,157.650 154.000 C 157.917 154.000,161.081 151.686,162.636 150.354 C 163.078 149.976,163.565 149.667,163.719 149.667 C 163.874 149.667,164.000 149.417,164.000 149.111 C 164.000 148.806,164.098 148.654,164.218 148.774 C 164.338 148.893,164.863 148.545,165.385 147.999 C 165.906 147.453,166.339 147.117,166.347 147.253 C 166.354 147.389,166.584 147.087,166.857 146.583 C 167.131 146.079,167.478 145.667,167.629 145.667 C 168.070 145.667,169.667 144.069,169.667 143.627 C 169.667 143.404,169.765 143.321,169.886 143.442 C 170.187 143.743,171.037 142.996,170.810 142.629 C 170.710 142.466,170.861 142.333,171.147 142.333 C 171.433 142.333,171.667 142.166,171.667 141.961 C 171.667 141.756,172.267 141.006,173.000 140.294 C 173.734 139.582,174.259 139.000,174.167 139.000 C 174.075 139.000,174.263 138.720,174.583 138.379 C 175.837 137.044,177.864 134.519,178.474 133.534 C 178.826 132.965,179.690 131.637,180.393 130.583 C 181.096 129.529,181.558 128.662,181.419 128.657 C 181.280 128.651,181.429 128.494,181.750 128.307 C 182.071 128.120,182.333 127.762,182.333 127.511 C 182.333 127.261,182.446 127.006,182.583 126.944 C 182.721 126.883,183.132 126.233,183.497 125.500 C 183.862 124.767,184.237 124.091,184.330 123.999 C 184.837 123.499,186.002 120.939,185.841 120.679 C 185.737 120.511,185.859 120.253,186.112 120.104 C 186.364 119.955,186.834 119.008,187.156 118.000 C 187.479 116.992,187.944 115.843,188.192 115.448 C 188.735 114.580,191.514 105.705,191.829 103.833 C 191.952 103.100,192.092 102.350,192.140 102.167 C 192.285 101.606,192.657 99.556,192.805 98.500 C 192.882 97.950,192.977 97.500,193.015 97.500 C 193.054 97.500,193.123 97.200,193.170 96.833 C 193.217 96.467,193.353 95.545,193.472 94.785 C 194.170 90.331,194.165 78.392,193.463 74.667 C 193.342 74.025,193.205 72.975,193.158 72.333 C 193.070 71.142,192.756 69.230,192.500 68.333 C 192.421 68.058,192.270 67.321,192.164 66.695 C 192.058 66.068,191.909 65.456,191.833 65.333 C 191.758 65.211,191.606 64.598,191.497 63.972 C 191.388 63.346,191.086 62.203,190.825 61.433 C 190.565 60.663,190.283 59.653,190.199 59.188 C 190.115 58.724,189.930 58.157,189.789 57.928 C 189.647 57.699,189.508 57.284,189.480 57.006 C 189.415 56.370,188.532 54.097,187.342 51.500 C 186.838 50.400,186.157 48.862,185.829 48.083 C 185.501 47.304,185.080 46.667,184.894 46.667 C 184.708 46.667,184.651 46.571,184.768 46.454 C 184.885 46.337,184.675 45.812,184.301 45.288 C 183.927 44.763,183.705 44.333,183.806 44.333 C 183.908 44.333,183.469 43.516,182.829 42.516 C 182.190 41.516,181.667 40.541,181.667 40.349 C 181.667 40.157,181.517 40.000,181.333 40.000 C 181.150 40.000,181.000 39.782,181.000 39.515 C 181.000 39.248,180.618 38.648,180.152 38.182 C 179.685 37.715,179.402 37.333,179.523 37.333 C 179.842 37.333,178.644 35.549,178.114 35.233 C 177.868 35.087,177.667 34.763,177.667 34.513 C 177.667 34.263,177.212 33.677,176.656 33.209 C 176.100 32.741,175.651 32.240,175.659 32.096 C 175.679 31.692,173.740 29.437,171.250 26.967 C 170.012 25.740,169.000 24.570,169.000 24.368 C 169.000 24.165,168.850 24.000,168.668 24.000 C 168.485 24.000,167.622 23.286,166.751 22.413 C 164.888 20.546,163.161 19.046,162.000 18.283 C 161.542 17.983,160.858 17.458,160.482 17.118 C 160.105 16.778,159.566 16.350,159.283 16.167 C 159.001 15.983,157.434 14.946,155.801 13.862 C 154.169 12.778,152.008 11.442,151.000 10.894 C 147.735 9.117,144.987 7.703,144.741 7.672 C 144.608 7.655,143.560 7.183,142.412 6.624 C 141.263 6.064,140.138 5.575,139.912 5.537 C 139.685 5.499,139.162 5.282,138.750 5.056 C 138.337 4.829,138.000 4.727,138.000 4.830 C 138.000 4.933,137.569 4.794,137.042 4.522 C 136.516 4.249,135.994 4.117,135.884 4.227 C 135.773 4.338,135.467 4.249,135.204 4.031 C 134.940 3.812,134.299 3.560,133.779 3.472 C 133.259 3.383,132.158 3.103,131.333 2.849 C 129.929 2.418,127.503 1.837,125.723 1.506 C 125.296 1.426,124.696 1.291,124.390 1.204 C 124.084 1.117,122.933 0.946,121.833 0.822 C 120.733 0.699,119.158 0.512,118.333 0.408 C 115.918 0.101,102.653 0.091,100.833 0.394 M113.917 43.878 C 114.696 43.853,115.334 43.914,115.334 44.012 C 115.333 44.111,115.671 44.215,116.083 44.244 C 116.684 44.287,118.346 44.582,119.333 44.822 C 122.104 45.495,123.035 45.788,123.187 46.033 C 123.289 46.198,123.616 46.333,123.914 46.333 C 124.725 46.333,131.156 49.584,131.840 50.341 C 132.168 50.704,132.572 51.000,132.738 51.000 C 133.184 51.000,135.527 52.920,137.553 54.946 C 138.532 55.924,139.333 56.614,139.333 56.479 C 139.333 56.344,139.807 56.893,140.385 57.700 C 140.964 58.507,141.639 59.287,141.885 59.433 C 142.132 59.580,142.333 59.884,142.333 60.110 C 142.333 60.335,142.632 60.735,142.998 60.999 C 143.363 61.262,143.825 61.970,144.024 62.572 C 144.222 63.174,144.532 63.667,144.712 63.667 C 144.892 63.667,144.956 63.801,144.855 63.965 C 144.753 64.129,144.895 64.349,145.169 64.455 C 145.443 64.560,145.667 64.856,145.667 65.112 C 145.667 65.369,146.176 66.573,146.799 67.789 C 147.421 69.005,147.880 70.000,147.817 70.000 C 147.754 70.000,147.986 70.825,148.333 71.833 C 148.680 72.842,148.904 73.667,148.830 73.667 C 148.757 73.667,148.908 74.267,149.167 75.000 C 149.425 75.733,149.550 76.333,149.444 76.333 C 149.338 76.333,149.391 76.521,149.562 76.750 C 149.732 76.979,149.846 77.504,149.815 77.917 C 149.783 78.329,149.850 78.667,149.962 78.667 C 150.181 78.668,150.221 79.396,150.274 84.333 C 150.319 88.615,149.889 92.943,149.309 94.040 C 149.152 94.336,149.115 94.670,149.226 94.781 C 149.337 94.893,149.249 95.200,149.030 95.464 C 148.810 95.728,148.591 96.295,148.541 96.722 C 148.492 97.150,148.125 98.225,147.726 99.111 C 147.327 99.997,147.000 100.822,147.000 100.944 C 147.000 101.387,144.819 105.510,144.250 106.143 C 143.929 106.500,143.667 106.920,143.667 107.077 C 143.667 107.396,143.626 107.450,141.482 110.000 C 139.409 112.465,136.372 115.667,136.105 115.667 C 135.986 115.667,135.652 115.888,135.361 116.159 C 133.770 117.643,133.090 118.177,132.673 118.271 C 132.418 118.328,131.937 118.688,131.604 119.072 C 131.272 119.455,131.000 119.647,131.000 119.499 C 131.000 119.351,130.737 119.454,130.417 119.727 C 130.096 120.000,129.346 120.416,128.750 120.652 C 128.154 120.888,127.667 121.229,127.667 121.409 C 127.667 121.590,127.442 121.652,127.167 121.546 C 126.892 121.441,126.667 121.500,126.667 121.677 C 126.667 121.855,126.554 121.976,126.417 121.947 C 126.279 121.918,125.942 121.987,125.667 122.101 C 124.419 122.618,120.450 124.064,120.000 124.165 C 119.725 124.227,118.750 124.451,117.833 124.662 C 114.801 125.360,105.861 125.822,105.167 125.316 C 104.983 125.183,103.892 124.989,102.742 124.885 C 101.591 124.781,100.531 124.622,100.385 124.532 C 100.239 124.442,99.755 124.295,99.310 124.205 C 97.103 123.759,94.488 122.934,94.389 122.651 C 94.328 122.476,94.028 122.332,93.722 122.329 C 93.417 122.327,92.535 121.964,91.763 121.522 C 90.990 121.081,90.018 120.612,89.602 120.480 C 88.713 120.197,87.266 119.199,85.887 117.917 C 85.345 117.412,84.784 117.000,84.641 117.000 C 84.498 117.000,84.180 116.813,83.934 116.583 C 83.689 116.354,82.749 115.499,81.846 114.684 C 80.071 113.081,76.333 108.858,76.333 108.456 C 76.333 108.321,76.049 107.900,75.702 107.521 C 75.354 107.143,74.775 106.275,74.415 105.592 C 74.055 104.909,73.664 104.447,73.547 104.564 C 73.429 104.682,73.333 104.557,73.333 104.288 C 73.333 104.018,72.982 103.056,72.552 102.149 C 71.617 100.175,70.924 98.533,70.976 98.413 C 70.997 98.365,70.782 97.878,70.498 97.330 C 70.215 96.782,70.050 96.333,70.131 96.333 C 70.213 96.333,70.129 95.790,69.946 95.125 C 69.763 94.461,69.533 93.598,69.436 93.208 C 68.313 88.683,68.340 80.904,69.496 75.917 C 69.741 74.862,69.861 74.000,69.763 74.000 C 69.665 74.000,69.772 73.775,70.000 73.500 C 70.228 73.225,70.332 73.000,70.230 73.000 C 70.128 73.000,70.546 71.725,71.157 70.167 C 71.769 68.608,72.198 67.333,72.111 67.333 C 72.023 67.333,72.260 66.941,72.638 66.461 C 73.015 65.981,73.228 65.433,73.111 65.243 C 72.987 65.042,73.059 64.997,73.282 65.135 C 73.493 65.266,73.667 65.211,73.667 65.013 C 73.667 64.815,74.044 64.056,74.504 63.327 C 74.965 62.597,75.280 62.000,75.204 62.000 C 75.128 62.000,75.501 61.534,76.033 60.965 C 76.565 60.395,77.000 59.779,77.000 59.596 C 77.000 59.413,77.375 58.968,77.833 58.607 C 78.292 58.247,78.667 57.713,78.667 57.420 C 78.667 57.128,78.746 56.969,78.844 57.066 C 78.941 57.164,80.048 56.251,81.302 55.038 C 82.557 53.826,84.165 52.414,84.875 51.902 C 85.586 51.390,86.754 50.524,87.472 49.978 C 88.190 49.432,89.127 48.897,89.555 48.790 C 89.983 48.682,90.333 48.436,90.333 48.242 C 90.333 48.048,90.434 47.989,90.556 48.112 C 90.679 48.234,91.070 48.072,91.425 47.751 C 91.780 47.429,92.167 47.186,92.285 47.210 C 92.403 47.234,92.844 47.123,93.265 46.963 C 93.685 46.803,94.398 46.580,94.848 46.467 C 95.298 46.354,95.667 46.146,95.667 46.006 C 95.667 45.865,96.004 45.746,96.417 45.741 C 96.829 45.737,97.617 45.545,98.167 45.315 C 98.717 45.084,99.317 44.867,99.500 44.832 C 99.683 44.797,99.908 44.735,100.000 44.694 C 100.150 44.628,100.674 44.535,102.833 44.191 C 103.200 44.133,103.500 44.053,103.500 44.015 C 103.500 43.976,105.300 43.868,107.500 43.774 C 109.700 43.681,111.561 43.545,111.636 43.472 C 111.711 43.399,111.936 43.470,112.136 43.631 C 112.336 43.791,113.138 43.902,113.917 43.878 M322.333 162.276 C 326.092 162.928,329.756 164.075,332.140 165.348 C 333.121 165.871,334.015 166.207,334.128 166.094 C 334.241 165.981,334.333 166.054,334.333 166.255 C 334.333 166.457,334.635 166.718,335.004 166.835 C 338.098 167.817,347.385 176.337,349.214 179.873 C 349.487 180.401,350.001 181.143,350.355 181.521 C 350.710 181.900,351.000 182.311,351.000 182.436 C 351.000 182.927,352.173 185.333,352.412 185.333 C 352.552 185.333,352.667 185.600,352.667 185.926 C 352.667 186.252,352.926 186.889,353.244 187.342 C 353.561 187.796,353.777 188.167,353.722 188.167 C 353.603 188.167,353.758 188.692,354.463 190.678 C 354.758 191.509,355.000 192.513,355.000 192.908 C 355.000 193.304,355.136 193.711,355.302 193.814 C 355.468 193.917,355.525 194.301,355.429 194.669 C 355.333 195.036,355.397 195.524,355.571 195.752 C 356.455 196.909,356.194 208.791,355.236 211.000 C 355.117 211.275,354.954 211.875,354.875 212.333 C 354.591 213.979,354.236 215.174,353.907 215.591 C 353.722 215.825,353.654 216.098,353.754 216.198 C 353.854 216.298,353.733 216.772,353.485 217.250 C 353.237 217.728,353.110 218.242,353.203 218.393 C 353.297 218.543,353.205 218.667,353.000 218.667 C 352.795 218.667,352.720 218.817,352.833 219.000 C 352.947 219.183,352.916 219.333,352.765 219.333 C 352.614 219.333,352.141 220.121,351.713 221.083 C 350.481 223.859,347.588 228.173,346.610 228.697 C 346.274 228.877,346.000 229.186,346.000 229.384 C 346.000 229.885,340.683 235.000,340.162 235.000 C 339.929 235.000,339.652 235.225,339.546 235.500 C 339.441 235.775,339.116 236.000,338.824 236.000 C 338.533 236.000,338.377 236.134,338.478 236.298 C 338.579 236.462,338.288 236.689,337.831 236.804 C 337.374 236.919,337.000 237.169,337.000 237.359 C 337.000 237.550,336.862 237.621,336.694 237.517 C 336.525 237.412,336.161 237.554,335.884 237.830 C 335.607 238.107,335.292 238.333,335.184 238.333 C 335.075 238.333,334.352 238.734,333.577 239.223 C 332.801 239.713,332.092 240.086,332.000 240.052 C 331.908 240.017,331.083 240.320,330.167 240.723 C 329.250 241.126,328.200 241.505,327.833 241.564 C 327.467 241.624,326.792 241.811,326.333 241.981 C 323.414 243.061,310.667 244.137,310.667 243.304 C 310.667 243.196,309.979 243.082,309.138 243.050 C 308.297 243.018,307.322 242.839,306.971 242.651 C 306.620 242.463,306.333 242.386,306.333 242.480 C 306.333 242.574,305.951 242.505,305.483 242.327 C 305.015 242.149,304.153 241.925,303.566 241.829 C 302.980 241.734,302.200 241.523,301.833 241.362 C 301.467 241.200,300.567 240.813,299.833 240.501 C 297.461 239.493,294.169 237.840,294.062 237.603 C 294.004 237.476,293.292 237.050,292.479 236.656 C 291.665 236.263,291.000 235.822,291.000 235.677 C 291.000 235.532,290.212 234.817,289.250 234.089 C 286.444 231.964,282.333 227.594,282.333 226.735 C 282.333 226.535,282.060 226.175,281.726 225.936 C 281.392 225.696,280.765 224.787,280.333 223.917 C 279.902 223.046,279.425 222.333,279.274 222.333 C 279.123 222.333,279.000 222.162,279.000 221.952 C 279.000 221.742,278.490 220.504,277.867 219.202 C 274.685 212.552,273.424 202.939,274.844 196.167 C 274.960 195.617,275.104 194.717,275.165 194.167 C 275.226 193.617,275.307 193.129,275.346 193.083 C 275.385 193.037,275.454 192.850,275.500 192.667 C 275.546 192.483,275.614 192.296,275.651 192.250 C 275.687 192.204,275.767 191.913,275.826 191.603 C 276.025 190.574,276.749 188.505,277.041 188.136 C 277.198 187.936,277.232 187.677,277.116 187.561 C 277.000 187.445,277.095 187.121,277.327 186.841 C 277.559 186.562,277.617 186.331,277.457 186.328 C 277.298 186.325,277.334 186.213,277.538 186.078 C 277.742 185.944,278.395 184.821,278.989 183.583 C 279.583 182.346,280.204 181.333,280.368 181.333 C 280.532 181.333,280.667 181.173,280.667 180.977 C 280.667 180.781,281.148 179.918,281.736 179.060 C 283.116 177.048,283.234 176.902,284.917 175.124 C 285.696 174.301,286.333 173.486,286.333 173.314 C 286.333 173.141,286.494 173.000,286.690 173.000 C 286.887 173.000,287.241 172.813,287.477 172.583 C 289.006 171.102,290.667 169.669,290.667 169.833 C 290.667 169.939,290.854 169.868,291.083 169.675 C 292.151 168.774,294.650 167.000,294.851 167.000 C 294.974 167.000,296.397 166.338,298.012 165.530 C 299.627 164.721,301.035 164.146,301.141 164.252 C 301.247 164.358,301.333 164.269,301.333 164.056 C 301.333 163.842,301.446 163.695,301.583 163.729 C 302.087 163.855,304.667 163.267,304.667 163.026 C 304.667 162.890,304.854 162.767,305.083 162.755 C 305.775 162.716,307.760 162.353,309.000 162.039 C 310.438 161.675,319.830 161.842,322.333 162.276 M116.500 266.143 C 117.600 266.280,118.875 266.453,119.333 266.526 C 120.192 266.664,120.457 266.723,123.000 267.352 C 123.825 267.556,124.800 267.794,125.167 267.881 C 126.140 268.112,126.437 268.205,127.057 268.475 C 127.364 268.609,127.889 268.770,128.224 268.834 C 128.559 268.897,128.908 268.978,129.000 269.014 C 129.092 269.050,129.279 269.061,129.417 269.039 C 129.554 269.018,129.667 269.134,129.667 269.297 C 129.667 269.570,131.220 270.126,131.415 269.924 C 131.462 269.876,131.967 270.168,132.538 270.575 C 133.108 270.981,133.664 271.225,133.772 271.117 C 133.880 271.009,134.211 271.163,134.508 271.460 C 134.805 271.757,135.262 272.000,135.524 272.000 C 135.786 272.000,136.000 272.159,136.000 272.353 C 136.000 272.547,136.138 272.621,136.306 272.517 C 136.475 272.412,136.839 272.554,137.116 272.830 C 137.393 273.107,137.708 273.333,137.817 273.333 C 138.021 273.333,140.704 275.023,141.000 275.338 C 141.266 275.621,142.976 276.678,143.162 276.673 C 143.254 276.671,143.760 277.119,144.285 277.668 C 144.809 278.217,145.336 278.667,145.456 278.667 C 145.737 278.667,147.246 280.001,149.794 282.502 C 152.238 284.902,154.102 287.000,153.790 287.000 C 153.665 287.000,153.961 287.342,154.448 287.761 C 154.935 288.179,155.333 288.695,155.333 288.908 C 155.333 289.121,155.632 289.505,155.998 289.761 C 156.363 290.017,156.563 290.326,156.442 290.447 C 156.321 290.568,156.422 290.667,156.667 290.667 C 156.911 290.667,157.022 290.756,156.913 290.865 C 156.804 290.974,157.379 292.034,158.191 293.219 C 159.002 294.405,159.667 295.467,159.667 295.578 C 159.667 295.690,159.929 296.081,160.250 296.448 C 160.571 296.815,160.634 296.997,160.389 296.854 C 160.145 296.711,160.335 297.210,160.810 297.964 C 161.286 298.717,161.581 299.333,161.466 299.333 C 161.351 299.333,161.502 299.709,161.803 300.167 C 162.513 301.251,164.842 308.171,165.169 310.167 C 165.229 310.533,165.302 310.833,165.333 310.833 C 165.363 310.833,165.434 311.208,165.492 311.667 C 165.549 312.125,165.693 312.929,165.812 313.454 C 166.515 316.576,166.680 324.093,166.148 328.808 C 165.901 330.994,165.776 332.907,165.869 333.058 C 165.963 333.209,165.911 333.333,165.754 333.333 C 165.598 333.333,165.433 333.883,165.387 334.555 C 165.342 335.226,165.203 335.939,165.079 336.138 C 164.843 336.516,164.713 337.044,164.579 338.167 C 164.536 338.533,164.416 338.908,164.313 339.000 C 164.209 339.092,163.858 340.067,163.532 341.167 C 163.205 342.267,162.727 343.639,162.469 344.217 C 162.211 344.795,162.000 345.343,162.000 345.435 C 162.000 345.527,161.475 346.531,160.833 347.667 C 160.192 348.802,159.667 349.941,159.667 350.199 C 159.667 350.456,159.543 350.667,159.392 350.667 C 159.242 350.667,158.754 351.354,158.309 352.195 C 157.012 354.645,156.799 354.983,156.043 355.787 C 155.649 356.206,155.417 356.639,155.526 356.748 C 155.635 356.857,155.336 357.201,154.862 357.512 C 154.388 357.822,154.000 358.281,154.000 358.531 C 154.000 358.780,153.620 359.233,153.156 359.537 C 152.692 359.842,152.389 360.167,152.482 360.260 C 152.676 360.454,146.017 367.000,145.626 367.000 C 145.486 367.000,145.138 367.333,144.852 367.741 C 144.567 368.148,144.331 368.336,144.328 368.158 C 144.325 367.979,144.181 368.058,144.007 368.333 C 143.833 368.608,143.530 368.833,143.333 368.833 C 143.137 368.833,142.869 368.990,142.738 369.181 C 142.362 369.731,138.305 372.333,137.823 372.333 C 137.584 372.333,137.339 372.448,137.278 372.589 C 137.116 372.961,131.142 375.815,129.000 376.543 C 127.992 376.886,127.116 377.280,127.055 377.419 C 126.993 377.557,126.809 377.588,126.645 377.487 C 126.481 377.385,126.030 377.472,125.643 377.679 C 125.256 377.887,124.540 378.111,124.053 378.179 C 123.197 378.297,121.885 378.560,118.000 379.392 C 116.090 379.801,105.404 379.946,102.500 379.602 C 99.918 379.297,97.882 378.963,97.333 378.755 C 96.629 378.489,96.413 378.428,94.167 377.862 C 93.067 377.586,91.342 377.042,90.333 376.654 C 89.325 376.267,87.825 375.714,87.000 375.427 C 86.175 375.140,85.330 374.773,85.121 374.610 C 84.913 374.448,83.566 373.695,82.128 372.937 C 80.690 372.179,78.925 371.134,78.206 370.613 C 77.488 370.093,76.689 369.667,76.430 369.667 C 76.172 369.667,76.036 369.544,76.129 369.394 C 76.221 369.245,75.818 368.841,75.232 368.497 C 74.646 368.152,74.004 367.712,73.804 367.519 C 73.605 367.325,72.421 366.267,71.173 365.167 C 68.238 362.580,68.000 362.342,68.000 361.999 C 68.000 361.841,67.698 361.616,67.328 361.498 C 66.959 361.381,66.729 361.169,66.817 361.027 C 66.904 360.885,66.542 360.352,66.011 359.844 C 65.480 359.335,64.635 358.269,64.133 357.475 C 63.631 356.681,63.095 356.108,62.943 356.202 C 62.791 356.296,62.667 356.076,62.667 355.714 C 62.667 355.352,62.551 355.006,62.410 354.944 C 61.612 354.599,56.333 344.889,56.333 343.767 C 56.333 343.493,56.117 342.871,55.853 342.385 C 55.079 340.960,54.021 337.770,53.837 336.309 C 53.744 335.566,53.523 334.687,53.345 334.356 C 53.168 334.025,53.110 333.668,53.216 333.562 C 53.322 333.456,53.245 332.649,53.046 331.768 C 52.411 328.967,52.124 321.836,52.490 318.000 C 52.832 314.419,53.021 312.902,53.152 312.690 C 53.233 312.560,53.374 312.089,53.466 311.643 C 53.557 311.198,53.729 310.458,53.846 310.000 C 53.964 309.542,54.109 308.867,54.169 308.500 C 54.229 308.133,54.308 307.758,54.345 307.667 C 54.382 307.575,54.393 307.383,54.369 307.240 C 54.346 307.097,54.554 306.539,54.833 306.001 C 55.111 305.463,55.370 304.642,55.409 304.178 C 55.447 303.713,55.605 303.333,55.759 303.333 C 55.913 303.333,55.947 303.183,55.833 303.000 C 55.720 302.817,55.786 302.667,55.980 302.667 C 56.174 302.667,56.309 302.554,56.280 302.417 C 56.226 302.170,56.370 301.798,57.530 299.167 C 57.853 298.433,58.153 297.649,58.195 297.423 C 58.238 297.198,58.511 296.775,58.803 296.483 C 59.095 296.191,59.333 295.738,59.333 295.476 C 59.333 295.214,59.483 295.000,59.667 295.000 C 59.850 295.000,60.000 294.759,60.000 294.465 C 60.000 294.170,60.450 293.361,61.000 292.667 C 61.550 291.972,62.000 291.261,62.000 291.087 C 62.000 290.913,62.315 290.485,62.701 290.136 C 63.086 289.787,63.601 289.116,63.845 288.644 C 64.330 287.706,65.347 286.477,67.703 283.979 C 68.548 283.084,69.161 282.272,69.064 282.175 C 68.968 282.079,69.040 282.000,69.225 282.000 C 69.506 282.000,71.989 279.856,74.028 277.852 C 74.318 277.567,74.731 277.333,74.945 277.333 C 75.158 277.333,75.333 277.183,75.333 277.000 C 75.333 276.817,75.482 276.667,75.664 276.667 C 75.944 276.667,78.174 275.140,79.583 273.983 C 79.813 273.794,80.000 273.713,80.000 273.802 C 80.000 273.891,80.938 273.434,82.083 272.786 C 84.138 271.624,86.733 270.398,88.333 269.832 C 88.425 269.800,89.033 269.534,89.685 269.243 C 90.337 268.951,91.312 268.615,91.852 268.496 C 92.392 268.377,93.208 268.145,93.667 267.982 C 94.125 267.818,94.875 267.615,95.333 267.530 C 95.792 267.445,96.917 267.213,97.833 267.014 C 98.750 266.815,100.536 266.506,101.803 266.328 C 103.070 266.150,104.145 265.966,104.192 265.919 C 104.386 265.726,114.648 265.912,116.500 266.143 M321.000 403.464 C 322.742 403.740,324.504 404.048,324.917 404.149 C 325.329 404.251,325.957 404.398,326.312 404.477 C 326.666 404.556,327.229 404.760,327.562 404.932 C 327.894 405.103,328.354 405.176,328.583 405.094 C 328.813 405.012,329.000 405.091,329.000 405.269 C 329.000 405.532,330.087 406.001,331.016 406.139 C 331.581 406.224,337.231 409.260,337.734 409.750 C 338.064 410.071,338.481 410.333,338.661 410.333 C 338.841 410.333,339.501 410.821,340.127 411.417 C 340.754 412.012,341.752 412.875,342.346 413.333 C 342.939 413.792,343.741 414.523,344.129 414.960 C 344.516 415.396,345.321 416.261,345.917 416.882 C 346.512 417.504,347.000 418.168,347.000 418.359 C 347.000 418.550,347.150 418.613,347.333 418.500 C 347.517 418.387,347.667 418.528,347.667 418.814 C 347.667 419.099,347.817 419.333,348.000 419.333 C 348.183 419.333,348.333 419.525,348.333 419.759 C 348.333 419.994,348.633 420.442,349.000 420.756 C 349.367 421.070,349.667 421.546,349.667 421.814 C 349.667 422.081,349.854 422.420,350.083 422.567 C 350.614 422.906,351.333 424.184,351.333 424.788 C 351.333 425.043,351.562 425.441,351.841 425.673 C 352.121 425.905,352.272 426.172,352.178 426.267 C 352.083 426.361,352.185 426.655,352.405 426.920 C 352.624 427.184,352.834 427.604,352.870 427.853 C 352.907 428.101,353.172 428.776,353.460 429.352 C 353.747 429.929,354.078 430.912,354.196 431.537 C 354.313 432.162,354.542 432.756,354.704 432.857 C 354.867 432.957,355.000 433.472,355.000 434.000 C 355.000 434.528,355.152 435.055,355.339 435.170 C 355.525 435.285,355.587 435.526,355.476 435.706 C 355.365 435.885,355.458 436.798,355.683 437.736 C 356.083 439.403,356.217 447.348,355.885 449.667 C 355.714 450.858,355.425 452.167,355.333 452.167 C 355.305 452.167,355.225 452.392,355.154 452.667 C 355.084 452.942,354.851 453.842,354.638 454.667 C 354.425 455.492,354.214 456.392,354.170 456.667 C 354.063 457.332,353.129 459.542,352.319 461.045 C 351.960 461.712,351.667 462.481,351.667 462.755 C 351.667 463.028,351.443 463.437,351.170 463.664 C 350.897 463.890,350.740 464.182,350.820 464.312 C 350.900 464.442,350.674 464.798,350.316 465.104 C 349.959 465.410,349.667 465.874,349.667 466.136 C 349.667 466.397,349.548 466.661,349.403 466.722 C 349.258 466.783,348.695 467.432,348.153 468.164 C 345.743 471.418,340.840 476.333,340.005 476.333 C 339.837 476.333,339.580 476.524,339.433 476.758 C 339.087 477.308,335.148 479.781,333.750 480.326 C 333.154 480.558,332.667 480.904,332.667 481.096 C 332.667 481.288,332.568 481.346,332.447 481.225 C 332.327 481.104,332.027 481.173,331.781 481.377 C 331.535 481.581,331.333 481.637,331.333 481.500 C 331.333 481.363,331.132 481.419,330.886 481.623 C 330.502 481.941,327.213 483.127,325.667 483.504 C 325.055 483.653,322.088 484.202,319.833 484.584 C 318.237 484.854,312.449 484.796,310.000 484.486 C 309.358 484.405,308.383 484.278,307.833 484.205 C 307.283 484.133,306.383 483.896,305.833 483.680 C 305.283 483.463,304.795 483.304,304.747 483.324 C 304.478 483.443,302.103 482.863,301.766 482.596 C 301.546 482.421,300.951 482.233,300.445 482.177 C 299.939 482.122,299.470 481.909,299.402 481.705 C 299.333 481.500,299.028 481.329,298.722 481.323 C 298.417 481.317,297.882 481.097,297.534 480.833 C 297.186 480.570,296.790 480.424,296.652 480.509 C 296.515 480.594,296.318 480.441,296.214 480.170 C 296.097 479.866,295.809 479.761,295.458 479.896 C 295.091 480.036,294.971 479.984,295.117 479.747 C 295.245 479.540,295.028 479.281,294.615 479.150 C 293.622 478.835,290.430 476.770,290.100 476.230 C 289.953 475.990,289.521 475.577,289.139 475.313 C 287.471 474.161,285.333 472.128,285.333 471.694 C 285.333 471.435,285.241 471.314,285.129 471.427 C 284.919 471.636,283.383 469.767,281.350 466.829 C 280.718 465.915,280.068 465.075,279.905 464.963 C 279.743 464.851,279.612 464.626,279.614 464.463 C 279.621 464.027,278.621 461.912,278.135 461.333 C 277.903 461.058,277.684 460.683,277.648 460.500 C 277.533 459.919,277.276 459.198,276.802 458.125 C 276.549 457.553,276.291 456.803,276.229 456.459 C 276.166 456.115,275.939 455.196,275.724 454.417 C 274.849 451.245,274.680 450.398,274.478 448.166 C 274.226 445.394,274.245 440.174,274.510 439.000 C 274.746 437.957,275.018 436.420,275.159 435.333 C 275.219 434.875,275.301 434.462,275.342 434.417 C 275.383 434.371,275.454 434.183,275.500 434.000 C 275.546 433.817,275.614 433.629,275.652 433.583 C 275.690 433.537,275.792 433.064,275.879 432.532 C 275.966 431.999,276.393 430.686,276.828 429.615 C 277.264 428.543,277.532 427.667,277.425 427.667 C 277.318 427.667,277.460 427.404,277.741 427.083 C 278.021 426.762,278.575 425.755,278.972 424.845 C 279.368 423.935,279.799 423.110,279.930 423.012 C 280.060 422.914,280.904 421.733,281.805 420.388 C 283.325 418.120,289.363 411.667,289.965 411.667 C 290.112 411.667,290.589 411.356,291.026 410.977 C 291.464 410.598,292.724 409.745,293.827 409.081 C 294.931 408.417,295.925 407.740,296.037 407.575 C 296.149 407.411,296.304 407.327,296.381 407.388 C 296.546 407.519,299.422 406.283,299.667 405.976 C 299.758 405.860,300.208 405.677,300.667 405.568 C 301.125 405.459,302.325 405.124,303.333 404.823 C 307.259 403.652,308.518 403.398,311.232 403.233 C 312.001 403.186,312.701 403.077,312.787 402.990 C 313.086 402.690,317.851 402.965,321.000 403.464 M113.333 523.496 C 115.865 523.763,116.868 523.941,120.000 524.676 C 120.825 524.869,121.688 525.046,121.917 525.069 C 122.146 525.092,122.333 525.245,122.333 525.409 C 122.333 525.572,122.486 525.612,122.673 525.496 C 122.859 525.381,123.534 525.609,124.173 526.004 C 124.811 526.398,125.333 526.645,125.333 526.552 C 125.333 526.091,133.295 530.755,135.000 532.215 C 137.126 534.035,141.637 538.716,141.820 539.290 C 141.944 539.681,142.157 540.000,142.294 540.000 C 142.432 540.000,142.881 540.600,143.293 541.333 C 143.705 542.067,144.183 542.667,144.355 542.667 C 144.526 542.667,144.667 542.938,144.667 543.270 C 144.667 543.603,144.967 544.196,145.333 544.590 C 145.700 544.983,146.000 545.517,146.000 545.774 C 146.000 546.032,146.277 546.601,146.616 547.038 C 146.955 547.476,147.331 548.239,147.452 548.735 C 147.573 549.231,147.831 550.056,148.026 550.569 C 148.221 551.081,148.376 551.535,148.370 551.579 C 148.364 551.622,148.585 552.297,148.861 553.079 C 149.137 553.860,149.437 555.025,149.528 555.667 C 149.619 556.308,149.785 557.283,149.897 557.833 C 150.560 561.073,150.521 567.369,149.816 571.167 C 149.714 571.717,149.579 572.542,149.515 573.000 C 149.451 573.458,149.366 573.871,149.325 573.917 C 149.284 573.962,149.212 574.150,149.167 574.333 C 149.121 574.517,149.045 574.704,148.999 574.750 C 148.953 574.796,148.867 575.133,148.808 575.500 C 148.628 576.623,146.869 581.158,146.250 582.094 C 145.929 582.579,145.667 583.109,145.667 583.270 C 145.667 583.852,144.649 585.526,143.503 586.830 C 142.860 587.561,142.333 588.349,142.333 588.580 C 142.333 588.811,142.183 589.000,142.000 589.000 C 141.817 589.000,141.667 589.155,141.667 589.344 C 141.667 589.534,141.157 590.199,140.533 590.822 C 139.910 591.446,139.471 592.027,139.558 592.114 C 139.646 592.201,139.413 592.369,139.042 592.487 C 138.671 592.604,138.285 592.956,138.184 593.267 C 138.083 593.579,137.513 594.168,136.917 594.577 C 136.321 594.987,135.233 595.853,134.500 596.503 C 132.690 598.106,132.218 598.414,129.099 600.025 C 128.146 600.518,127.396 600.976,127.433 601.044 C 127.470 601.111,127.444 601.136,127.375 601.098 C 127.307 601.060,126.675 601.322,125.972 601.681 C 125.269 602.040,124.522 602.333,124.314 602.333 C 124.105 602.333,123.461 602.551,122.884 602.816 C 121.710 603.356,118.033 604.334,116.500 604.515 C 111.571 605.095,110.170 605.199,107.944 605.145 C 106.537 605.112,104.812 604.966,104.110 604.822 C 103.408 604.678,102.608 604.517,102.333 604.466 C 102.058 604.414,101.308 604.263,100.667 604.130 C 100.025 603.997,99.393 603.911,99.262 603.940 C 99.130 603.969,98.605 603.820,98.095 603.609 C 97.584 603.399,96.979 603.257,96.750 603.294 C 96.521 603.332,96.333 603.206,96.333 603.015 C 96.333 602.823,96.221 602.699,96.083 602.739 C 95.946 602.779,95.308 602.609,94.667 602.361 C 94.025 602.112,93.350 601.873,93.167 601.829 C 92.983 601.785,92.039 601.281,91.069 600.708 C 90.098 600.135,89.239 599.667,89.160 599.667 C 88.312 599.667,81.730 594.501,79.864 592.371 C 79.480 591.933,78.455 590.808,77.586 589.871 C 76.717 588.934,76.004 587.979,76.003 587.750 C 76.001 587.521,75.850 587.333,75.667 587.333 C 75.483 587.333,75.333 587.158,75.333 586.943 C 75.333 586.728,75.128 586.316,74.878 586.026 C 74.298 585.357,71.625 580.333,71.848 580.333 C 71.940 580.333,71.770 579.958,71.469 579.500 C 71.169 579.042,71.019 578.667,71.137 578.667 C 71.254 578.667,71.139 578.254,70.881 577.750 C 70.428 576.866,69.238 572.407,68.813 570.000 C 68.550 568.509,68.572 559.433,68.841 558.333 C 68.954 557.875,69.103 557.125,69.174 556.667 C 69.401 555.191,69.532 554.690,69.745 554.477 C 69.860 554.362,69.879 554.073,69.788 553.834 C 69.696 553.596,69.775 553.306,69.963 553.190 C 70.151 553.074,70.220 552.758,70.116 552.489 C 70.013 552.220,70.071 552.000,70.244 552.000 C 70.418 552.000,70.763 551.153,71.012 550.117 C 71.260 549.082,71.809 547.725,72.232 547.102 C 72.654 546.480,73.000 545.825,73.000 545.647 C 73.000 545.276,73.724 543.916,74.057 543.664 C 74.179 543.570,74.329 543.270,74.390 542.997 C 74.450 542.724,74.765 542.302,75.089 542.061 C 75.413 541.819,75.591 541.481,75.486 541.311 C 75.380 541.140,75.453 541.000,75.647 541.000 C 75.841 541.000,76.000 540.786,76.000 540.524 C 76.000 540.262,76.355 539.769,76.788 539.428 C 77.222 539.087,77.683 538.474,77.812 538.066 C 77.942 537.658,78.176 537.403,78.333 537.500 C 78.490 537.597,78.718 537.363,78.840 536.980 C 78.961 536.597,79.121 536.343,79.195 536.417 C 79.268 536.491,80.567 535.340,82.081 533.861 C 83.595 532.381,84.875 531.212,84.925 531.263 C 84.975 531.313,85.500 530.989,86.092 530.542 C 87.588 529.411,94.820 525.758,96.107 525.483 C 96.690 525.358,97.317 525.143,97.500 525.005 C 97.683 524.867,98.433 524.635,99.167 524.490 C 99.900 524.345,100.650 524.192,100.833 524.151 C 102.193 523.842,103.812 523.605,105.667 523.442 C 106.858 523.338,107.863 523.228,107.900 523.198 C 108.014 523.106,111.403 523.292,113.333 523.496 " stroke="none" fill="#1c1c1c" fill-rule="evenodd"></path></g></svg>